G04 ================== begin FILE IDENTIFICATION RECORD ==================*
G04 Layout Name:  DOEON_PCBv4.brd*
G04 Film Name:    Drill_Draw*
G04 File Format:  Gerber RS274X*
G04 File Origin:  Cadence Allegro 17.2-P019*
G04 Origin Date:  Thu Oct 03 16:39:02 2019*
G04 *
G04 Layer:  MANUFACTURING/NCLEGEND-1-2*
G04 Layer:  BOARD GEOMETRY/DESIGN_OUTLINE*
G04 *
G04 Offset:    (0.0000 0.0000)*
G04 Mirror:    No*
G04 Mode:      Positive*
G04 Rotation:  0*
G04 FullContactRelief:  No*
G04 UndefLineWidth:     0.2000*
G04 ================== end FILE IDENTIFICATION RECORD ====================*
%FSLAX35Y35*MOMM*%
%IR0*IPPOS*OFA0.00000B0.00000*MIA0B0*SFA1.00000B1.00000*%
%AMMACRO15*
1,1,.2,1.75005,0.0*
20,1,.2,1.75005,0.0,0.0,-1.75005,0.0*
1,1,.2,0.0,-1.75005*
20,1,.2,0.0,-1.75005,-1.75005,0.0,0.0*
1,1,.2,-1.75005,0.0*
20,1,.2,-1.75005,0.0,0.0,1.75005,0.0*
1,1,.2,0.0,1.75005*
20,1,.2,0.0,1.75005,1.75005,0.0,0.0*
1,1,.2,1.75005,0.0*
%
%ADD15MACRO15*%
%AMMACRO13*
1,1,.2,.1651,0.0*
20,1,.2,.1651,0.0,-.1651,0.0,0.0*
1,1,.2,-.1651,0.0*
1,1,.2,0.0,.1651*
20,1,.2,0.0,.1651,0.0,-.1651,0.0*
1,1,.2,0.0,-.1651*
%
%ADD13MACRO13*%
%AMMACRO12*
1,1,.2,.44995,0.0*
20,1,.2,.44995,0.0,.224975,.389668,0.0*
1,1,.2,.224975,.389668*
20,1,.2,.224975,.389668,-.224975,.389668,0.0*
1,1,.2,-.224975,.389668*
20,1,.2,-.224975,.389668,-.44995,0.0,0.0*
1,1,.2,-.44995,0.0*
20,1,.2,-.44995,0.0,-.224975,-.389668,0.0*
1,1,.2,-.224975,-.389668*
20,1,.2,-.224975,-.389668,.224975,-.389668,0.0*
1,1,.2,.224975,-.389668*
20,1,.2,.224975,-.389668,.44995,0.0,0.0*
1,1,.2,.44995,0.0*
%
%ADD12MACRO12*%
%AMMACRO14*
1,1,.2,.381,.381*
20,1,.2,.381,.381,.381,-.381,0.0*
1,1,.2,.381,-.381*
20,1,.2,.381,-.381,-.381,-.381,0.0*
1,1,.2,-.381,-.381*
20,1,.2,-.381,-.381,-.381,.381,0.0*
1,1,.2,-.381,.381*
20,1,.2,-.381,.381,.381,.381,0.0*
1,1,.2,.381,.381*
%
%ADD14MACRO14*%
%AMMACRO16*
1,1,.2,0.0,6.*
20,1,.2,0.0,6.,6.,-6.,0.0*
1,1,.2,6.,-6.*
20,1,.2,6.,-6.,-6.,-6.,0.0*
1,1,.2,-6.,-6.*
20,1,.2,-6.,-6.,0.0,6.,0.0*
1,1,.2,0.0,6.*
%
%ADD16MACRO16*%
%AMMACRO11*
1,1,.2,0.0,.508*
20,1,.2,0.0,.508,-.439941,.254,0.0*
1,1,.2,-.439941,.254*
20,1,.2,-.439941,.254,-.439941,-.254,0.0*
1,1,.2,-.439941,-.254*
20,1,.2,-.439941,-.254,0.0,-.508,0.0*
1,1,.2,0.0,-.508*
20,1,.2,0.0,-.508,.439941,-.254,0.0*
1,1,.2,.439941,-.254*
20,1,.2,.439941,-.254,.439941,.254,0.0*
1,1,.2,.439941,.254*
20,1,.2,.439941,.254,0.0,.508,0.0*
1,1,.2,0.0,.508*
%
%ADD11MACRO11*%
%AMMACRO10*
1,1,.2,.414214,-1.*
20,1,.2,.414214,-1.,-.414214,-1.,0.0*
1,1,.2,-.414214,-1.*
20,1,.2,-.414214,-1.,-1.,-.414214,0.0*
1,1,.2,-1.,-.414214*
20,1,.2,-1.,-.414214,-1.,.414214,0.0*
1,1,.2,-1.,.414214*
20,1,.2,-1.,.414214,-.414214,1.,0.0*
1,1,.2,-.414214,1.*
20,1,.2,-.414214,1.,.414214,1.,0.0*
1,1,.2,.414214,1.*
20,1,.2,.414214,1.,1.,.414214,0.0*
1,1,.2,1.,.414214*
20,1,.2,1.,.414214,1.,-.414214,0.0*
1,1,.2,1.,-.414214*
20,1,.2,1.,-.414214,.414214,-1.,0.0*
1,1,.2,.414214,-1.*
%
%ADD10MACRO10*%
%ADD17C,.2*%
G75*
%LPD*%
G75*
G54D10*
X508000Y1524000D03*
Y2540000D03*
Y5842000D03*
Y6858000D03*
X14603730Y5474000D03*
G54D11*
X762000Y3556000D03*
Y3810000D03*
X508000Y3556000D03*
Y3810000D03*
X762000Y4064000D03*
Y4318000D03*
Y4572000D03*
X508000Y4064000D03*
Y4318000D03*
Y4572000D03*
X762000Y4826000D03*
X508000D03*
X14603730Y7274000D03*
G54D12*
X1016000Y1778000D03*
Y2032000D03*
Y6096000D03*
Y6350000D03*
X14603730Y9074000D03*
G54D13*
X2159000Y2794000D03*
Y4826000D03*
X3048000Y2095500D03*
X2794000Y2794000D03*
X2540000Y4572000D03*
X2413000Y4064000D03*
X3000000Y6300000D03*
X3429000Y2000000D03*
X3238500Y1900000D03*
Y2286000D03*
Y3175000D03*
X3750000Y4450000D03*
X3746500Y5334000D03*
Y6667500D03*
X3150000Y6159500D03*
X3400000Y6400000D03*
X4318000Y1079500D03*
X4000500Y1333500D03*
X4318000Y2032000D03*
X4000500Y2794000D03*
X4572000Y2413000D03*
X4550000Y6500000D03*
X4699000Y1649400D03*
X4889500Y4850000D03*
Y6032500D03*
X5397500Y1333500D03*
X5842000Y2032000D03*
X5905500Y4572000D03*
X5778500Y5588000D03*
X5524500Y6667500D03*
X6413500Y3175000D03*
X6921500Y5080000D03*
Y6032500D03*
X7874000Y3556000D03*
X8128000Y4572000D03*
X7874000Y5080000D03*
Y4826000D03*
X8398000Y5842000D03*
X11049000Y3064000D03*
X11112500Y4264000D03*
X11049000Y4896030D03*
X10858500Y4762500D03*
X11049000Y5461000D03*
X10798000Y5725400D03*
X14603730Y12674000D03*
G54D14*
X2794000Y2540000D03*
Y2794000D03*
Y3048000D03*
Y3302000D03*
Y3556000D03*
Y3810000D03*
Y4064000D03*
Y4318000D03*
Y4572000D03*
Y4826000D03*
Y5080000D03*
Y5334000D03*
Y5588000D03*
Y5842000D03*
X4318000Y3048000D03*
Y2794000D03*
Y2540000D03*
Y3810000D03*
Y3556000D03*
Y3302000D03*
Y4572000D03*
Y4318000D03*
Y4064000D03*
Y5334000D03*
Y5080000D03*
Y4826000D03*
Y5842000D03*
Y5588000D03*
X5080000Y2540000D03*
Y2794000D03*
Y3048000D03*
Y3302000D03*
Y3556000D03*
Y3810000D03*
Y4064000D03*
Y4318000D03*
Y4572000D03*
Y4826000D03*
Y5080000D03*
Y5334000D03*
Y5588000D03*
Y5842000D03*
X6604000Y3048000D03*
Y2794000D03*
Y2540000D03*
Y3810000D03*
Y3556000D03*
Y3302000D03*
Y4572000D03*
Y4318000D03*
Y4064000D03*
Y5334000D03*
Y5080000D03*
Y4826000D03*
Y5842000D03*
Y5588000D03*
X14603730Y10874000D03*
G54D15*
X8298000Y2964000D03*
Y5164000D03*
X10498000Y2964000D03*
Y5164000D03*
X14603730Y3674000D03*
G54D16*
X9398000Y4064000D03*
X14603730Y1874000D03*
G54D17*
G01X0Y0D02*
Y8000000D01*
X12000000D01*
Y0D01*
X0D01*
G01X13462000Y974000D02*
Y15494000D01*
X26060400D01*
Y974000D01*
X13462000D01*
G01Y2774000D02*
X26060400D01*
G01X13462000Y4574000D02*
X26060400D01*
G01X13462000Y6374000D02*
X26060400D01*
G01X13462000Y8174000D02*
X26060400D01*
G01X13462000Y9974000D02*
X26060400D01*
G01X13462000Y11774000D02*
X26060400D01*
G01X13741520Y13732750D02*
Y14050250D01*
X13891140D01*
G01X13836010Y13896800D02*
X13741520D01*
G01X14084050Y14050250D02*
X14178530D01*
G01X14131290D02*
Y13732750D01*
G01X14084050D02*
X14178530D01*
G01X14469870Y13891500D02*
X14548620D01*
Y13796250D01*
X14524990Y13764490D01*
X14497430Y13743330D01*
X14458060Y13732750D01*
X14418690Y13743330D01*
X14391130Y13764490D01*
X14367510Y13796250D01*
X14351760Y13833290D01*
X14343880Y13875620D01*
Y13912670D01*
X14351760Y13944410D01*
X14367510Y13981460D01*
X14391130Y14013210D01*
X14414750Y14034370D01*
X14446250Y14050250D01*
X14473810D01*
X14505300Y14039670D01*
X14528930Y14018500D01*
G01X14674600Y14050250D02*
Y13822710D01*
X14690340Y13775070D01*
X14721840Y13743330D01*
X14761210Y13732750D01*
X14800580Y13743330D01*
X14832080Y13775070D01*
X14847820Y13822710D01*
Y14050250D01*
G01X14997430Y13732750D02*
Y14050250D01*
X15095850D01*
X15127350Y14034370D01*
X15147040Y14013210D01*
X15154910Y13970870D01*
X15147040Y13928540D01*
X15123410Y13902090D01*
X15095850Y13886200D01*
X14997430D01*
G01X15095850D02*
X15154910Y13732750D01*
G01X15469870D02*
X15312390D01*
Y14050250D01*
X15469870D01*
G01X15406880Y13896800D02*
X15312390D01*
G01X13462000Y13574000D02*
X26060400D01*
G01X13462000Y14209000D02*
X26060400D01*
G01X13462000Y14844000D02*
X26060400D01*
G01X15745460Y14209000D02*
Y974000D01*
G01X15410810Y14367750D02*
X15509240Y14685250D01*
X15607670Y14367750D01*
G01X15572230Y14478870D02*
X15446240D01*
G01X15745460Y14685250D02*
Y14367750D01*
X15902940D01*
G01X16060420Y14685250D02*
Y14367750D01*
X16217900D01*
G01X16682470Y14685250D02*
Y14457710D01*
X16698210Y14410070D01*
X16729710Y14378330D01*
X16769080Y14367750D01*
X16808450Y14378330D01*
X16839950Y14410070D01*
X16855690Y14457710D01*
Y14685250D01*
G01X16993490Y14367750D02*
Y14685250D01*
X17174590Y14367750D01*
Y14685250D01*
G01X17351760D02*
X17446240D01*
G01X17399000D02*
Y14367750D01*
G01X17351760D02*
X17446240D01*
G01X17713960Y14685250D02*
Y14367750D01*
G01X17623410Y14685250D02*
X17804510D01*
G01X17946240Y14410070D02*
X17977740Y14383620D01*
X18013170Y14367750D01*
X18044670D01*
X18076160Y14383620D01*
X18099790Y14410070D01*
X18111600Y14447130D01*
X18103730Y14484160D01*
X18084040Y14515910D01*
X18048600Y14537090D01*
X18001360Y14547670D01*
X17973800Y14568830D01*
X17961990Y14605870D01*
X17969870Y14642920D01*
X17989550Y14669370D01*
X18017110Y14685250D01*
X18044670D01*
X18072230Y14674670D01*
X18095850Y14648210D01*
G01X18560410Y14367750D02*
X18658840Y14685250D01*
X18757270Y14367750D01*
G01X18721830Y14478870D02*
X18595840D01*
G01X18895060Y14367750D02*
Y14685250D01*
X18993480D01*
X19024980Y14669370D01*
X19044670Y14648210D01*
X19052540Y14605870D01*
X19044670Y14563540D01*
X19021040Y14537090D01*
X18993480Y14521200D01*
X18895060D01*
G01X18993480D02*
X19052540Y14367750D01*
G01X19367500D02*
X19210020D01*
Y14685250D01*
X19367500D01*
G01X19304510Y14531800D02*
X19210020D01*
G01X19871440Y14685250D02*
X19965920D01*
G01X19918680D02*
Y14367750D01*
G01X19871440D02*
X19965920D01*
G01X20143090D02*
Y14685250D01*
X20324190Y14367750D01*
Y14685250D01*
G01X20761190Y14367750D02*
Y14685250D01*
X20863560Y14420670D01*
X20965930Y14685250D01*
Y14367750D01*
G01X21131280Y14685250D02*
X21225760D01*
G01X21178520D02*
Y14367750D01*
G01X21131280D02*
X21225760D01*
G01X21414740Y14685250D02*
Y14367750D01*
X21572220D01*
G01X21729700Y14685250D02*
Y14367750D01*
X21887180D01*
G01X22076160Y14685250D02*
X22170640D01*
G01X22123400D02*
Y14367750D01*
G01X22076160D02*
X22170640D01*
G01X22335990D02*
Y14685250D01*
X22438360Y14420670D01*
X22540730Y14685250D01*
Y14367750D01*
G01X22832060D02*
X22674580D01*
Y14685250D01*
X22832060D01*
G01X22769070Y14531800D02*
X22674580D01*
G01X23068280Y14685250D02*
Y14367750D01*
G01X22977730Y14685250D02*
X23158830D01*
G01X23461980Y14367750D02*
X23304500D01*
Y14685250D01*
X23461980D01*
G01X23398990Y14531800D02*
X23304500D01*
G01X23619460Y14367750D02*
Y14685250D01*
X23717880D01*
X23749380Y14669370D01*
X23769070Y14648210D01*
X23776940Y14605870D01*
X23769070Y14563540D01*
X23745440Y14537090D01*
X23717880Y14521200D01*
X23619460D01*
G01X23717880D02*
X23776940Y14367750D01*
G01X23930480Y14410070D02*
X23961980Y14383620D01*
X23997410Y14367750D01*
X24028910D01*
X24060400Y14383620D01*
X24084030Y14410070D01*
X24095840Y14447130D01*
X24087970Y14484160D01*
X24068280Y14515910D01*
X24032840Y14537090D01*
X23985600Y14547670D01*
X23958040Y14568830D01*
X23946230Y14605870D01*
X23954110Y14642920D01*
X23973790Y14669370D01*
X24001350Y14685250D01*
X24028910D01*
X24056470Y14674670D01*
X24080090Y14648210D01*
G01X15737590Y15017750D02*
Y15335250D01*
X15816320D01*
X15847820Y15319370D01*
X15871440Y15298210D01*
X15891130Y15266460D01*
X15906880Y15229410D01*
X15910810Y15176500D01*
X15906880Y15123580D01*
X15891130Y15086540D01*
X15871440Y15054780D01*
X15847820Y15033620D01*
X15816320Y15017750D01*
X15737590D01*
G01X16060420D02*
Y15335250D01*
X16158840D01*
X16190340Y15319370D01*
X16210030Y15298210D01*
X16217900Y15255870D01*
X16210030Y15213540D01*
X16186400Y15187090D01*
X16158840Y15171200D01*
X16060420D01*
G01X16158840D02*
X16217900Y15017750D01*
G01X16406880Y15335250D02*
X16501360D01*
G01X16454120D02*
Y15017750D01*
G01X16406880D02*
X16501360D01*
G01X16690340Y15335250D02*
Y15017750D01*
X16847820D01*
G01X17005300Y15335250D02*
Y15017750D01*
X17162780D01*
G01X17800570Y15308790D02*
X17776950Y15324670D01*
X17749400Y15335250D01*
X17717900D01*
X17682460Y15319370D01*
X17654910Y15292920D01*
X17635220Y15261160D01*
X17619470Y15208250D01*
X17615530Y15160620D01*
X17623410Y15113000D01*
X17635220Y15081250D01*
X17658840Y15049490D01*
X17686400Y15028330D01*
X17713960Y15017750D01*
X17741520D01*
X17769080Y15028330D01*
X17792700Y15044200D01*
X17812390Y15065360D01*
G01X17946240Y15017750D02*
Y15335250D01*
G01X18111600D02*
Y15017750D01*
G01Y15176500D02*
X17946240D01*
G01X18245450Y15017750D02*
X18343880Y15335250D01*
X18442310Y15017750D01*
G01X18406870Y15128870D02*
X18280880D01*
G01X18580100Y15017750D02*
Y15335250D01*
X18678520D01*
X18710020Y15319370D01*
X18729710Y15298210D01*
X18737580Y15255870D01*
X18729710Y15213540D01*
X18706080Y15187090D01*
X18678520Y15171200D01*
X18580100D01*
G01X18678520D02*
X18737580Y15017750D01*
G01X18973800Y15335250D02*
Y15017750D01*
G01X18883250Y15335250D02*
X19064350D01*
G01X19288760Y15007170D02*
X19280880Y15012460D01*
Y15023040D01*
X19288760Y15028330D01*
X19296640Y15023040D01*
Y15012460D01*
X19288760Y15007170D01*
G01Y15150030D02*
X19280880Y15155330D01*
Y15165910D01*
X19288760Y15171200D01*
X19296640Y15165910D01*
Y15155330D01*
X19288760Y15150030D01*
G01X19918680Y15335250D02*
Y15017750D01*
G01X19828130Y15335250D02*
X20009230D01*
G01X20233640Y15017750D02*
X20202140Y15023040D01*
X20174590Y15044200D01*
X20150960Y15075960D01*
X20135210Y15113000D01*
X20127340Y15155330D01*
Y15197670D01*
X20135210Y15240000D01*
X20150960Y15277040D01*
X20174590Y15308790D01*
X20202140Y15329960D01*
X20233640Y15335250D01*
X20265130Y15329960D01*
X20292690Y15308790D01*
X20316320Y15277040D01*
X20332070Y15240000D01*
X20339940Y15197670D01*
Y15155330D01*
X20332070Y15113000D01*
X20316320Y15075960D01*
X20292690Y15044200D01*
X20265130Y15023040D01*
X20233640Y15017750D01*
G01X20469860D02*
Y15335250D01*
X20564350D01*
X20595840Y15319370D01*
X20619470Y15282330D01*
X20627340Y15240000D01*
X20619470Y15197670D01*
X20599780Y15165910D01*
X20564350Y15150030D01*
X20469860D01*
G01X21178520Y15335250D02*
Y15017750D01*
G01X21123400Y15229410D02*
X21233640D01*
G01X21493480Y15017750D02*
X21469860Y15023040D01*
X21446240Y15044200D01*
X21430480Y15081250D01*
X21422610Y15123580D01*
X21430480Y15165910D01*
X21446240Y15202960D01*
X21469860Y15224120D01*
X21493480Y15229410D01*
X21517100Y15224120D01*
X21540720Y15202960D01*
X21556470Y15165910D01*
X21560410Y15123580D01*
X21556470Y15081250D01*
X21540720Y15044200D01*
X21517100Y15023040D01*
X21493480Y15017750D01*
G01X22154890Y15187090D02*
X22170640Y15202960D01*
X22182450Y15229410D01*
X22190330Y15266460D01*
X22182450Y15298210D01*
X22166710Y15319370D01*
X22139150Y15335250D01*
X22032850D01*
Y15017750D01*
X22162770D01*
X22190330Y15038910D01*
X22206080Y15070670D01*
X22213950Y15107710D01*
X22206080Y15144740D01*
X22182450Y15176500D01*
X22154890Y15187090D01*
X22032850D01*
G01X22438360Y15017750D02*
X22406860Y15023040D01*
X22379310Y15044200D01*
X22355680Y15075960D01*
X22339930Y15113000D01*
X22332060Y15155330D01*
Y15197670D01*
X22339930Y15240000D01*
X22355680Y15277040D01*
X22379310Y15308790D01*
X22406860Y15329960D01*
X22438360Y15335250D01*
X22469850Y15329960D01*
X22497410Y15308790D01*
X22521040Y15277040D01*
X22536790Y15240000D01*
X22544660Y15197670D01*
Y15155330D01*
X22536790Y15113000D01*
X22521040Y15075960D01*
X22497410Y15044200D01*
X22469850Y15023040D01*
X22438360Y15017750D01*
G01X22753320Y15335250D02*
Y15017750D01*
G01X22662770Y15335250D02*
X22843870D01*
G01X23068280D02*
Y15017750D01*
G01X22977730Y15335250D02*
X23158830D01*
G01X23383240Y15017750D02*
X23351740Y15023040D01*
X23324190Y15044200D01*
X23300560Y15075960D01*
X23284810Y15113000D01*
X23276940Y15155330D01*
Y15197670D01*
X23284810Y15240000D01*
X23300560Y15277040D01*
X23324190Y15308790D01*
X23351740Y15329960D01*
X23383240Y15335250D01*
X23414730Y15329960D01*
X23442290Y15308790D01*
X23465920Y15277040D01*
X23481670Y15240000D01*
X23489540Y15197670D01*
Y15155330D01*
X23481670Y15113000D01*
X23465920Y15075960D01*
X23442290Y15044200D01*
X23414730Y15023040D01*
X23383240Y15017750D01*
G01X23595830D02*
Y15335250D01*
X23698200Y15070670D01*
X23800570Y15335250D01*
Y15017750D01*
G01X16339940Y13732750D02*
Y14050250D01*
X16489560D01*
G01X16434430Y13896800D02*
X16339940D01*
G01X16682470Y14050250D02*
X16776950D01*
G01X16729710D02*
Y13732750D01*
G01X16682470D02*
X16776950D01*
G01X16954120D02*
Y14050250D01*
X17135220Y13732750D01*
Y14050250D01*
G01X17312390D02*
X17406870D01*
G01X17359630D02*
Y13732750D01*
G01X17312390D02*
X17406870D01*
G01X17591910Y13775070D02*
X17623410Y13748620D01*
X17658840Y13732750D01*
X17690340D01*
X17721830Y13748620D01*
X17745460Y13775070D01*
X17757270Y13812130D01*
X17749400Y13849160D01*
X17729710Y13880910D01*
X17694270Y13902090D01*
X17647030Y13912670D01*
X17619470Y13933830D01*
X17607660Y13970870D01*
X17615540Y14007920D01*
X17635220Y14034370D01*
X17662780Y14050250D01*
X17690340D01*
X17717900Y14039670D01*
X17741520Y14013210D01*
G01X17906870Y13732750D02*
Y14050250D01*
G01X18072230D02*
Y13732750D01*
G01Y13891500D02*
X17906870D01*
G01X18383250Y13732750D02*
X18225770D01*
Y14050250D01*
X18383250D01*
G01X18320260Y13896800D02*
X18225770D01*
G01X18532860Y13732750D02*
Y14050250D01*
X18611590D01*
X18643090Y14034370D01*
X18666710Y14013210D01*
X18686400Y13981460D01*
X18702150Y13944410D01*
X18706080Y13891500D01*
X18702150Y13838580D01*
X18686400Y13801540D01*
X18666710Y13769780D01*
X18643090Y13748620D01*
X18611590Y13732750D01*
X18532860D01*
G01X18816320Y13626920D02*
X19052540D01*
G01X19166710Y13775070D02*
X19198210Y13748620D01*
X19233640Y13732750D01*
X19265140D01*
X19296630Y13748620D01*
X19320260Y13775070D01*
X19332070Y13812130D01*
X19324200Y13849160D01*
X19304510Y13880910D01*
X19269070Y13902090D01*
X19221830Y13912670D01*
X19194270Y13933830D01*
X19182460Y13970870D01*
X19190340Y14007920D01*
X19210020Y14034370D01*
X19237580Y14050250D01*
X19265140D01*
X19292700Y14039670D01*
X19316320Y14013210D01*
G01X19517110Y14050250D02*
X19611590D01*
G01X19564350D02*
Y13732750D01*
G01X19517110D02*
X19611590D01*
G01X19804500Y14050250D02*
X19954120D01*
X19804500Y13732750D01*
X19954120D01*
G01X20273010D02*
X20115530D01*
Y14050250D01*
X20273010D01*
G01X20210020Y13896800D02*
X20115530D01*
G01X17430500Y3578750D02*
X17454110Y3541700D01*
X17485610Y3520540D01*
X17521050Y3515250D01*
X17552550Y3520540D01*
X17584040Y3546990D01*
X17603720Y3578750D01*
X17607660Y3610500D01*
X17599790Y3647530D01*
X17572230Y3674000D01*
X17544670Y3684590D01*
X17509230D01*
G01X17544670D02*
X17568290Y3700460D01*
X17587980Y3726910D01*
X17595850Y3758660D01*
X17587980Y3790420D01*
X17568290Y3816870D01*
X17532860Y3832750D01*
X17497430Y3827460D01*
X17461990Y3806290D01*
G01X17832070Y3504670D02*
X17824190Y3509960D01*
Y3520540D01*
X17832070Y3525830D01*
X17839950Y3520540D01*
Y3509960D01*
X17832070Y3504670D01*
G01X18060420Y3562860D02*
X18084030Y3536410D01*
X18111590Y3520540D01*
X18147030Y3515250D01*
X18182470Y3525830D01*
X18210020Y3546990D01*
X18229710Y3584040D01*
X18233640Y3626370D01*
X18225770Y3668700D01*
X18206080Y3695170D01*
X18178520Y3716330D01*
X18150970Y3721620D01*
X18123410Y3716330D01*
X18087980Y3695170D01*
X18099790Y3832750D01*
X18206080D01*
G01X18461990D02*
X18430490Y3822170D01*
X18406870Y3795710D01*
X18391120Y3763960D01*
X18379310Y3721620D01*
X18375380Y3674000D01*
X18379310Y3626370D01*
X18391120Y3584040D01*
X18406870Y3552280D01*
X18430490Y3525830D01*
X18461990Y3515250D01*
X18493480Y3525830D01*
X18517110Y3552280D01*
X18532860Y3584040D01*
X18544670Y3626370D01*
X18548600Y3674000D01*
X18544670Y3721620D01*
X18532860Y3763960D01*
X18517110Y3795710D01*
X18493480Y3822170D01*
X18461990Y3832750D01*
G01X18776950D02*
X18745450Y3822170D01*
X18721830Y3795710D01*
X18706080Y3763960D01*
X18694270Y3721620D01*
X18690340Y3674000D01*
X18694270Y3626370D01*
X18706080Y3584040D01*
X18721830Y3552280D01*
X18745450Y3525830D01*
X18776950Y3515250D01*
X18808440Y3525830D01*
X18832070Y3552280D01*
X18847820Y3584040D01*
X18859630Y3626370D01*
X18863560Y3674000D01*
X18859630Y3721620D01*
X18847820Y3763960D01*
X18832070Y3795710D01*
X18808440Y3822170D01*
X18776950Y3832750D01*
G01X19091910Y3515250D02*
Y3832750D01*
X19044670Y3769250D01*
G01Y3515250D02*
X19139150D01*
G01X17517110Y9232750D02*
X17485610Y9222170D01*
X17461990Y9195710D01*
X17446240Y9163960D01*
X17434430Y9121620D01*
X17430500Y9074000D01*
X17434430Y9026370D01*
X17446240Y8984040D01*
X17461990Y8952280D01*
X17485610Y8925830D01*
X17517110Y8915250D01*
X17548600Y8925830D01*
X17572230Y8952280D01*
X17587980Y8984040D01*
X17599790Y9026370D01*
X17603720Y9074000D01*
X17599790Y9121620D01*
X17587980Y9163960D01*
X17572230Y9195710D01*
X17548600Y9222170D01*
X17517110Y9232750D01*
G01X17832070Y8904670D02*
X17824190Y8909960D01*
Y8920540D01*
X17832070Y8925830D01*
X17839950Y8920540D01*
Y8909960D01*
X17832070Y8904670D01*
G01X18147030Y8915250D02*
X18174590Y8920540D01*
X18206080Y8936410D01*
X18225770Y8962860D01*
X18233640Y8999920D01*
X18225770Y9036950D01*
X18202150Y9068700D01*
X18166710Y9084590D01*
X18127350D01*
X18103720Y9095170D01*
X18084030Y9121620D01*
X18076160Y9158660D01*
X18087980Y9195710D01*
X18115530Y9222170D01*
X18147030Y9232750D01*
X18178520Y9222170D01*
X18206080Y9195710D01*
X18217900Y9158660D01*
X18210020Y9121620D01*
X18190340Y9095170D01*
X18166710Y9084590D01*
X18127350D01*
X18091910Y9068700D01*
X18068290Y9036950D01*
X18060420Y8999920D01*
X18068290Y8962860D01*
X18087980Y8936410D01*
X18119470Y8920540D01*
X18147030Y8915250D01*
G01X18395060Y8952280D02*
X18422620Y8925830D01*
X18454110Y8915250D01*
X18485610Y8925830D01*
X18513170Y8957570D01*
X18532860Y9005210D01*
X18540730Y9052830D01*
Y9111040D01*
X18532860Y9158660D01*
X18513170Y9201000D01*
X18489550Y9222170D01*
X18461990Y9232750D01*
X18430490Y9222170D01*
X18406870Y9201000D01*
X18391120Y9169250D01*
X18383250Y9126910D01*
X18391120Y9089880D01*
X18410810Y9052830D01*
X18434430Y9031660D01*
X18461990Y9026370D01*
X18493480Y9036950D01*
X18517110Y9063410D01*
X18540730Y9111040D01*
G01X18710020Y8952280D02*
X18737580Y8925830D01*
X18769070Y8915250D01*
X18800570Y8925830D01*
X18828130Y8957570D01*
X18847820Y9005210D01*
X18855690Y9052830D01*
Y9111040D01*
X18847820Y9158660D01*
X18828130Y9201000D01*
X18804510Y9222170D01*
X18776950Y9232750D01*
X18745450Y9222170D01*
X18721830Y9201000D01*
X18706080Y9169250D01*
X18698210Y9126910D01*
X18706080Y9089880D01*
X18725770Y9052830D01*
X18749390Y9031660D01*
X18776950Y9026370D01*
X18808440Y9036950D01*
X18832070Y9063410D01*
X18855690Y9111040D01*
G01X19024980Y8952280D02*
X19052540Y8925830D01*
X19084030Y8915250D01*
X19115530Y8925830D01*
X19143090Y8957570D01*
X19162780Y9005210D01*
X19170650Y9052830D01*
Y9111040D01*
X19162780Y9158660D01*
X19143090Y9201000D01*
X19119470Y9222170D01*
X19091910Y9232750D01*
X19060410Y9222170D01*
X19036790Y9201000D01*
X19021040Y9169250D01*
X19013170Y9126910D01*
X19021040Y9089880D01*
X19040730Y9052830D01*
X19064350Y9031660D01*
X19091910Y9026370D01*
X19123400Y9036950D01*
X19147030Y9063410D01*
X19170650Y9111040D01*
G01X17517110Y12832750D02*
X17485610Y12822170D01*
X17461990Y12795710D01*
X17446240Y12763960D01*
X17434430Y12721620D01*
X17430500Y12674000D01*
X17434430Y12626370D01*
X17446240Y12584040D01*
X17461990Y12552280D01*
X17485610Y12525830D01*
X17517110Y12515250D01*
X17548600Y12525830D01*
X17572230Y12552280D01*
X17587980Y12584040D01*
X17599790Y12626370D01*
X17603720Y12674000D01*
X17599790Y12721620D01*
X17587980Y12763960D01*
X17572230Y12795710D01*
X17548600Y12822170D01*
X17517110Y12832750D01*
G01X17832070Y12504670D02*
X17824190Y12509960D01*
Y12520540D01*
X17832070Y12525830D01*
X17839950Y12520540D01*
Y12509960D01*
X17832070Y12504670D01*
G01X18060420Y12578750D02*
X18084030Y12541700D01*
X18115530Y12520540D01*
X18150970Y12515250D01*
X18182470Y12520540D01*
X18213960Y12546990D01*
X18233640Y12578750D01*
X18237580Y12610500D01*
X18229710Y12647530D01*
X18202150Y12674000D01*
X18174590Y12684590D01*
X18139150D01*
G01X18174590D02*
X18198210Y12700460D01*
X18217900Y12726910D01*
X18225770Y12758660D01*
X18217900Y12790420D01*
X18198210Y12816870D01*
X18162780Y12832750D01*
X18127350Y12827460D01*
X18091910Y12806290D01*
G01X18375380Y12578750D02*
X18398990Y12541700D01*
X18430490Y12520540D01*
X18465930Y12515250D01*
X18497430Y12520540D01*
X18528920Y12546990D01*
X18548600Y12578750D01*
X18552540Y12610500D01*
X18544670Y12647530D01*
X18517110Y12674000D01*
X18489550Y12684590D01*
X18454110D01*
G01X18489550D02*
X18513170Y12700460D01*
X18532860Y12726910D01*
X18540730Y12758660D01*
X18532860Y12790420D01*
X18513170Y12816870D01*
X18477740Y12832750D01*
X18442310Y12827460D01*
X18406870Y12806290D01*
G01X18776950Y12832750D02*
X18745450Y12822170D01*
X18721830Y12795710D01*
X18706080Y12763960D01*
X18694270Y12721620D01*
X18690340Y12674000D01*
X18694270Y12626370D01*
X18706080Y12584040D01*
X18721830Y12552280D01*
X18745450Y12525830D01*
X18776950Y12515250D01*
X18808440Y12525830D01*
X18832070Y12552280D01*
X18847820Y12584040D01*
X18859630Y12626370D01*
X18863560Y12674000D01*
X18859630Y12721620D01*
X18847820Y12763960D01*
X18832070Y12795710D01*
X18808440Y12822170D01*
X18776950Y12832750D01*
G01X19017100Y12779830D02*
X19040730Y12811580D01*
X19068290Y12827460D01*
X19099790Y12832750D01*
X19139150Y12822170D01*
X19166720Y12795710D01*
X19174590Y12763960D01*
X19170650Y12732200D01*
X19154900Y12705750D01*
X19076160Y12652830D01*
X19040730Y12615790D01*
X19017100Y12562860D01*
X19009230Y12515250D01*
X19174590D01*
G01X17832070Y1715250D02*
Y2032750D01*
X17784830Y1969250D01*
G01Y1715250D02*
X17879310D01*
G01X18072220Y1979830D02*
X18095850Y2011580D01*
X18123410Y2027460D01*
X18154910Y2032750D01*
X18194270Y2022170D01*
X18221840Y1995710D01*
X18229710Y1963960D01*
X18225770Y1932200D01*
X18210020Y1905750D01*
X18131280Y1852830D01*
X18095850Y1815790D01*
X18072220Y1762860D01*
X18064350Y1715250D01*
X18229710D01*
G01X18461990Y1704670D02*
X18454110Y1709960D01*
Y1720540D01*
X18461990Y1725830D01*
X18469870Y1720540D01*
Y1709960D01*
X18461990Y1704670D01*
G01X18776950Y2032750D02*
X18745450Y2022170D01*
X18721830Y1995710D01*
X18706080Y1963960D01*
X18694270Y1921620D01*
X18690340Y1874000D01*
X18694270Y1826370D01*
X18706080Y1784040D01*
X18721830Y1752280D01*
X18745450Y1725830D01*
X18776950Y1715250D01*
X18808440Y1725830D01*
X18832070Y1752280D01*
X18847820Y1784040D01*
X18859630Y1826370D01*
X18863560Y1874000D01*
X18859630Y1921620D01*
X18847820Y1963960D01*
X18832070Y1995710D01*
X18808440Y2022170D01*
X18776950Y2032750D01*
G01X17914740Y5579830D02*
X17938370Y5611580D01*
X17965930Y5627460D01*
X17997430Y5632750D01*
X18036790Y5622170D01*
X18064360Y5595710D01*
X18072230Y5563960D01*
X18068290Y5532200D01*
X18052540Y5505750D01*
X17973800Y5452830D01*
X17938370Y5415790D01*
X17914740Y5362860D01*
X17906870Y5315250D01*
X18072230D01*
G01X18304510Y5304670D02*
X18296630Y5309960D01*
Y5320540D01*
X18304510Y5325830D01*
X18312390Y5320540D01*
Y5309960D01*
X18304510Y5304670D01*
G01X18619470Y5632750D02*
X18587970Y5622170D01*
X18564350Y5595710D01*
X18548600Y5563960D01*
X18536790Y5521620D01*
X18532860Y5474000D01*
X18536790Y5426370D01*
X18548600Y5384040D01*
X18564350Y5352280D01*
X18587970Y5325830D01*
X18619470Y5315250D01*
X18650960Y5325830D01*
X18674590Y5352280D01*
X18690340Y5384040D01*
X18702150Y5426370D01*
X18706080Y5474000D01*
X18702150Y5521620D01*
X18690340Y5563960D01*
X18674590Y5595710D01*
X18650960Y5622170D01*
X18619470Y5632750D01*
G01X17674590Y7115250D02*
Y7432750D01*
X17627350Y7369250D01*
G01Y7115250D02*
X17721830D01*
G01X17989550Y7104670D02*
X17981670Y7109960D01*
Y7120540D01*
X17989550Y7125830D01*
X17997430Y7120540D01*
Y7109960D01*
X17989550Y7104670D01*
G01X18304510Y7432750D02*
X18273010Y7422170D01*
X18249390Y7395710D01*
X18233640Y7363960D01*
X18221830Y7321620D01*
X18217900Y7274000D01*
X18221830Y7226370D01*
X18233640Y7184040D01*
X18249390Y7152280D01*
X18273010Y7125830D01*
X18304510Y7115250D01*
X18336000Y7125830D01*
X18359630Y7152280D01*
X18375380Y7184040D01*
X18387190Y7226370D01*
X18391120Y7274000D01*
X18387190Y7321620D01*
X18375380Y7363960D01*
X18359630Y7395710D01*
X18336000Y7422170D01*
X18304510Y7432750D01*
G01X18619470Y7115250D02*
Y7432750D01*
X18572230Y7369250D01*
G01Y7115250D02*
X18666710D01*
G01X18859620Y7247530D02*
X18887190Y7284590D01*
X18910810Y7305750D01*
X18942310Y7316330D01*
X18969870Y7305750D01*
X18989550Y7284590D01*
X19005300Y7252830D01*
X19009240Y7215790D01*
X19005300Y7184040D01*
X18989550Y7152280D01*
X18965920Y7125830D01*
X18938370Y7115250D01*
X18906870Y7125830D01*
X18879310Y7157570D01*
X18863560Y7205210D01*
X18859620Y7258120D01*
X18867500Y7326910D01*
X18879310Y7363960D01*
X18898990Y7401000D01*
X18926550Y7427460D01*
X18954110Y7432750D01*
X18981670Y7422170D01*
X19001360Y7395710D01*
G01X17674590Y11032750D02*
X17643090Y11022170D01*
X17619470Y10995710D01*
X17603720Y10963960D01*
X17591910Y10921620D01*
X17587980Y10874000D01*
X17591910Y10826370D01*
X17603720Y10784040D01*
X17619470Y10752280D01*
X17643090Y10725830D01*
X17674590Y10715250D01*
X17706080Y10725830D01*
X17729710Y10752280D01*
X17745460Y10784040D01*
X17757270Y10826370D01*
X17761200Y10874000D01*
X17757270Y10921620D01*
X17745460Y10963960D01*
X17729710Y10995710D01*
X17706080Y11022170D01*
X17674590Y11032750D01*
G01X17989550Y10704670D02*
X17981670Y10709960D01*
Y10720540D01*
X17989550Y10725830D01*
X17997430Y10720540D01*
Y10709960D01*
X17989550Y10704670D01*
G01X18296630Y10715250D02*
X18304510Y10784040D01*
X18316320Y10842240D01*
X18332070Y10895170D01*
X18351750Y10953370D01*
X18383250Y11032750D01*
X18225770D01*
G01X18544660Y10847530D02*
X18572230Y10884590D01*
X18595850Y10905750D01*
X18627350Y10916330D01*
X18654910Y10905750D01*
X18674590Y10884590D01*
X18690340Y10852830D01*
X18694280Y10815790D01*
X18690340Y10784040D01*
X18674590Y10752280D01*
X18650960Y10725830D01*
X18623410Y10715250D01*
X18591910Y10725830D01*
X18564350Y10757570D01*
X18548600Y10805210D01*
X18544660Y10858120D01*
X18552540Y10926910D01*
X18564350Y10963960D01*
X18584030Y11001000D01*
X18611590Y11027460D01*
X18639150Y11032750D01*
X18666710Y11022170D01*
X18686400Y10995710D01*
G01X18859620Y10979830D02*
X18883250Y11011580D01*
X18910810Y11027460D01*
X18942310Y11032750D01*
X18981670Y11022170D01*
X19009240Y10995710D01*
X19017110Y10963960D01*
X19013170Y10932200D01*
X18997420Y10905750D01*
X18918680Y10852830D01*
X18883250Y10815790D01*
X18859620Y10762860D01*
X18851750Y10715250D01*
X19017110D01*
G01X20863560Y14209000D02*
Y974000D01*
G01X21611590Y1715250D02*
Y2032750D01*
X21706080D01*
X21737570Y2016870D01*
X21761200Y1979830D01*
X21769070Y1937500D01*
X21761200Y1895170D01*
X21741510Y1863410D01*
X21706080Y1847530D01*
X21611590D01*
G01X21926550Y2032750D02*
Y1715250D01*
X22084030D01*
G01X22221820D02*
X22320250Y2032750D01*
X22418680Y1715250D01*
G01X22383240Y1826370D02*
X22257250D01*
G01X22635210Y2032750D02*
Y1715250D01*
G01X22544660Y2032750D02*
X22725760D01*
G01X23028910Y1715250D02*
X22871430D01*
Y2032750D01*
X23028910D01*
G01X22965920Y1879300D02*
X22871430D01*
G01X23178520Y1715250D02*
Y2032750D01*
X23257250D01*
X23288750Y2016870D01*
X23312370Y1995710D01*
X23332060Y1963960D01*
X23347810Y1926910D01*
X23351740Y1874000D01*
X23347810Y1821080D01*
X23332060Y1784040D01*
X23312370Y1752280D01*
X23288750Y1731120D01*
X23257250Y1715250D01*
X23178520D01*
G01X21611590Y3515250D02*
Y3832750D01*
X21706080D01*
X21737570Y3816870D01*
X21761200Y3779830D01*
X21769070Y3737500D01*
X21761200Y3695170D01*
X21741510Y3663410D01*
X21706080Y3647530D01*
X21611590D01*
G01X21926550Y3832750D02*
Y3515250D01*
X22084030D01*
G01X22221820D02*
X22320250Y3832750D01*
X22418680Y3515250D01*
G01X22383240Y3626370D02*
X22257250D01*
G01X22635210Y3832750D02*
Y3515250D01*
G01X22544660Y3832750D02*
X22725760D01*
G01X23028910Y3515250D02*
X22871430D01*
Y3832750D01*
X23028910D01*
G01X22965920Y3679300D02*
X22871430D01*
G01X23178520Y3515250D02*
Y3832750D01*
X23257250D01*
X23288750Y3816870D01*
X23312370Y3795710D01*
X23332060Y3763960D01*
X23347810Y3726910D01*
X23351740Y3674000D01*
X23347810Y3621080D01*
X23332060Y3584040D01*
X23312370Y3552280D01*
X23288750Y3531120D01*
X23257250Y3515250D01*
X23178520D01*
G01X21611590Y5315250D02*
Y5632750D01*
X21706080D01*
X21737570Y5616870D01*
X21761200Y5579830D01*
X21769070Y5537500D01*
X21761200Y5495170D01*
X21741510Y5463410D01*
X21706080Y5447530D01*
X21611590D01*
G01X21926550Y5632750D02*
Y5315250D01*
X22084030D01*
G01X22221820D02*
X22320250Y5632750D01*
X22418680Y5315250D01*
G01X22383240Y5426370D02*
X22257250D01*
G01X22635210Y5632750D02*
Y5315250D01*
G01X22544660Y5632750D02*
X22725760D01*
G01X23028910Y5315250D02*
X22871430D01*
Y5632750D01*
X23028910D01*
G01X22965920Y5479300D02*
X22871430D01*
G01X23178520Y5315250D02*
Y5632750D01*
X23257250D01*
X23288750Y5616870D01*
X23312370Y5595710D01*
X23332060Y5563960D01*
X23347810Y5526910D01*
X23351740Y5474000D01*
X23347810Y5421080D01*
X23332060Y5384040D01*
X23312370Y5352280D01*
X23288750Y5331120D01*
X23257250Y5315250D01*
X23178520D01*
G01X21611590Y7115250D02*
Y7432750D01*
X21706080D01*
X21737570Y7416870D01*
X21761200Y7379830D01*
X21769070Y7337500D01*
X21761200Y7295170D01*
X21741510Y7263410D01*
X21706080Y7247530D01*
X21611590D01*
G01X21926550Y7432750D02*
Y7115250D01*
X22084030D01*
G01X22221820D02*
X22320250Y7432750D01*
X22418680Y7115250D01*
G01X22383240Y7226370D02*
X22257250D01*
G01X22635210Y7432750D02*
Y7115250D01*
G01X22544660Y7432750D02*
X22725760D01*
G01X23028910Y7115250D02*
X22871430D01*
Y7432750D01*
X23028910D01*
G01X22965920Y7279300D02*
X22871430D01*
G01X23178520Y7115250D02*
Y7432750D01*
X23257250D01*
X23288750Y7416870D01*
X23312370Y7395710D01*
X23332060Y7363960D01*
X23347810Y7326910D01*
X23351740Y7274000D01*
X23347810Y7221080D01*
X23332060Y7184040D01*
X23312370Y7152280D01*
X23288750Y7131120D01*
X23257250Y7115250D01*
X23178520D01*
G01X21611590Y8915250D02*
Y9232750D01*
X21706080D01*
X21737570Y9216870D01*
X21761200Y9179830D01*
X21769070Y9137500D01*
X21761200Y9095170D01*
X21741510Y9063410D01*
X21706080Y9047530D01*
X21611590D01*
G01X21926550Y9232750D02*
Y8915250D01*
X22084030D01*
G01X22221820D02*
X22320250Y9232750D01*
X22418680Y8915250D01*
G01X22383240Y9026370D02*
X22257250D01*
G01X22635210Y9232750D02*
Y8915250D01*
G01X22544660Y9232750D02*
X22725760D01*
G01X23028910Y8915250D02*
X22871430D01*
Y9232750D01*
X23028910D01*
G01X22965920Y9079300D02*
X22871430D01*
G01X23178520Y8915250D02*
Y9232750D01*
X23257250D01*
X23288750Y9216870D01*
X23312370Y9195710D01*
X23332060Y9163960D01*
X23347810Y9126910D01*
X23351740Y9074000D01*
X23347810Y9021080D01*
X23332060Y8984040D01*
X23312370Y8952280D01*
X23288750Y8931120D01*
X23257250Y8915250D01*
X23178520D01*
G01X21611590Y10715250D02*
Y11032750D01*
X21706080D01*
X21737570Y11016870D01*
X21761200Y10979830D01*
X21769070Y10937500D01*
X21761200Y10895170D01*
X21741510Y10863410D01*
X21706080Y10847530D01*
X21611590D01*
G01X21926550Y11032750D02*
Y10715250D01*
X22084030D01*
G01X22221820D02*
X22320250Y11032750D01*
X22418680Y10715250D01*
G01X22383240Y10826370D02*
X22257250D01*
G01X22635210Y11032750D02*
Y10715250D01*
G01X22544660Y11032750D02*
X22725760D01*
G01X23028910Y10715250D02*
X22871430D01*
Y11032750D01*
X23028910D01*
G01X22965920Y10879300D02*
X22871430D01*
G01X23178520Y10715250D02*
Y11032750D01*
X23257250D01*
X23288750Y11016870D01*
X23312370Y10995710D01*
X23332060Y10963960D01*
X23347810Y10926910D01*
X23351740Y10874000D01*
X23347810Y10821080D01*
X23332060Y10784040D01*
X23312370Y10752280D01*
X23288750Y10731120D01*
X23257250Y10715250D01*
X23178520D01*
G01X21611590Y12515250D02*
Y12832750D01*
X21706080D01*
X21737570Y12816870D01*
X21761200Y12779830D01*
X21769070Y12737500D01*
X21761200Y12695170D01*
X21741510Y12663410D01*
X21706080Y12647530D01*
X21611590D01*
G01X21926550Y12832750D02*
Y12515250D01*
X22084030D01*
G01X22221820D02*
X22320250Y12832750D01*
X22418680Y12515250D01*
G01X22383240Y12626370D02*
X22257250D01*
G01X22635210Y12832750D02*
Y12515250D01*
G01X22544660Y12832750D02*
X22725760D01*
G01X23028910Y12515250D02*
X22871430D01*
Y12832750D01*
X23028910D01*
G01X22965920Y12679300D02*
X22871430D01*
G01X23178520Y12515250D02*
Y12832750D01*
X23257250D01*
X23288750Y12816870D01*
X23312370Y12795710D01*
X23332060Y12763960D01*
X23347810Y12726910D01*
X23351740Y12674000D01*
X23347810Y12621080D01*
X23332060Y12584040D01*
X23312370Y12552280D01*
X23288750Y12531120D01*
X23257250Y12515250D01*
X23178520D01*
G01X21611590Y13732750D02*
Y14050250D01*
X21706080D01*
X21737570Y14034370D01*
X21761200Y13997330D01*
X21769070Y13955000D01*
X21761200Y13912670D01*
X21741510Y13880910D01*
X21706080Y13865030D01*
X21611590D01*
G01X21926550Y14050250D02*
Y13732750D01*
X22084030D01*
G01X22221820D02*
X22320250Y14050250D01*
X22418680Y13732750D01*
G01X22383240Y13843870D02*
X22257250D01*
G01X22635210Y14050250D02*
Y13732750D01*
G01X22544660Y14050250D02*
X22725760D01*
G01X23028910Y13732750D02*
X22871430D01*
Y14050250D01*
X23028910D01*
G01X22965920Y13896800D02*
X22871430D01*
G01X23178520Y13732750D02*
Y14050250D01*
X23257250D01*
X23288750Y14034370D01*
X23312370Y14013210D01*
X23332060Y13981460D01*
X23347810Y13944410D01*
X23351740Y13891500D01*
X23347810Y13838580D01*
X23332060Y13801540D01*
X23312370Y13769780D01*
X23288750Y13748620D01*
X23257250Y13732750D01*
X23178520D01*
G01X24091900Y14209000D02*
Y974000D01*
G01X25076150Y1715250D02*
Y2032750D01*
X25028910Y1969250D01*
G01Y1715250D02*
X25123390D01*
G01Y3515250D02*
Y3832750D01*
X24977720Y3605210D01*
X25174580D01*
G01X25123390Y5315250D02*
Y5632750D01*
X24977720Y5405210D01*
X25174580D01*
G01X24918670Y7115250D02*
Y7432750D01*
X24871430Y7369250D01*
G01Y7115250D02*
X24965910D01*
G01X25158820Y7379830D02*
X25182450Y7411580D01*
X25210010Y7427460D01*
X25241510Y7432750D01*
X25280870Y7422170D01*
X25308440Y7395710D01*
X25316310Y7363960D01*
X25312370Y7332200D01*
X25296620Y7305750D01*
X25217880Y7252830D01*
X25182450Y7215790D01*
X25158820Y7162860D01*
X25150950Y7115250D01*
X25316310D01*
G01X25123390Y8915250D02*
Y9232750D01*
X24977720Y9005210D01*
X25174580D01*
G01X24832060Y10762860D02*
X24855670Y10736410D01*
X24883230Y10720540D01*
X24918670Y10715250D01*
X24954110Y10725830D01*
X24981660Y10746990D01*
X25001350Y10784040D01*
X25005280Y10826370D01*
X24997410Y10868700D01*
X24977720Y10895170D01*
X24950160Y10916330D01*
X24922610Y10921620D01*
X24895050Y10916330D01*
X24859620Y10895170D01*
X24871430Y11032750D01*
X24977720D01*
G01X25158820Y10847530D02*
X25186390Y10884590D01*
X25210010Y10905750D01*
X25241510Y10916330D01*
X25269070Y10905750D01*
X25288750Y10884590D01*
X25304500Y10852830D01*
X25308440Y10815790D01*
X25304500Y10784040D01*
X25288750Y10752280D01*
X25265120Y10725830D01*
X25237570Y10715250D01*
X25206070Y10725830D01*
X25178510Y10757570D01*
X25162760Y10805210D01*
X25158820Y10858120D01*
X25166700Y10926910D01*
X25178510Y10963960D01*
X25198190Y11001000D01*
X25225750Y11027460D01*
X25253310Y11032750D01*
X25280870Y11022170D01*
X25300560Y10995710D01*
G01X24965910Y12515250D02*
Y12832750D01*
X24820240Y12605210D01*
X25017100D01*
G01X25147020Y12562860D02*
X25170630Y12536410D01*
X25198190Y12520540D01*
X25233630Y12515250D01*
X25269070Y12525830D01*
X25296620Y12546990D01*
X25316310Y12584040D01*
X25320240Y12626370D01*
X25312370Y12668700D01*
X25292680Y12695170D01*
X25265120Y12716330D01*
X25237570Y12721620D01*
X25210010Y12716330D01*
X25174580Y12695170D01*
X25186390Y12832750D01*
X25292680D01*
G01X24761190Y13732750D02*
X24729690Y13738040D01*
X24702140Y13759200D01*
X24678510Y13790960D01*
X24662760Y13828000D01*
X24654890Y13870330D01*
Y13912670D01*
X24662760Y13955000D01*
X24678510Y13992040D01*
X24702140Y14023790D01*
X24729690Y14044960D01*
X24761190Y14050250D01*
X24792680Y14044960D01*
X24820240Y14023790D01*
X24843870Y13992040D01*
X24859620Y13955000D01*
X24867490Y13912670D01*
Y13870330D01*
X24859620Y13828000D01*
X24843870Y13790960D01*
X24820240Y13759200D01*
X24792680Y13738040D01*
X24761190Y13732750D01*
G01X24792680Y13817420D02*
X24839930Y13732750D01*
G01X25076150Y14050250D02*
Y13732750D01*
G01X24985600Y14050250D02*
X25166700D01*
G01X25391110Y13732750D02*
Y13875620D01*
X25312370Y14050250D01*
G01X25469850D02*
X25391110Y13875620D01*
M02*
