G04 ================== begin FILE IDENTIFICATION RECORD ==================*
G04 Layout Name:  DOEON_PCBv4.brd*
G04 Film Name:    BOTTOM*
G04 File Format:  Gerber RS274X*
G04 File Origin:  Cadence Allegro 17.2-P019*
G04 Origin Date:  Thu Oct 03 16:39:02 2019*
G04 *
G04 Layer:  BOARD GEOMETRY/DESIGN_OUTLINE*
G04 Layer:  ETCH/BOTTOM*
G04 Layer:  PIN/BOTTOM*
G04 Layer:  VIA CLASS/BOTTOM*
G04 *
G04 Offset:    (0.0000 0.0000)*
G04 Mirror:    No*
G04 Mode:      Positive*
G04 Rotation:  0*
G04 FullContactRelief:  No*
G04 UndefLineWidth:     0.2000*
G04 ================== end FILE IDENTIFICATION RECORD ====================*
%FSLAX35Y35*MOMM*%
%IR0*IPPOS*OFA0.00000B0.00000*MIA0B0*SFA1.00000B1.00000*%
%ADD17C,12.*%
%ADD13C,.6096*%
%ADD12C,.8999*%
%ADD10C,2.*%
%ADD16C,3.5001*%
%ADD14C,1.27*%
%ADD11C,1.524*%
%ADD15R,1.27X1.27*%
%ADD18C,.254*%
%ADD19C,.2*%
G75*
%LPD*%
G75*
G54D10*
G01X508000Y3556000D02*
Y2984500D01*
X850680D01*
Y1778000D01*
X1016000D01*
G01Y6096000D02*
X190500D01*
Y3556000D01*
X508000D01*
G01X1016000Y6096000D02*
X2222500D01*
Y6467500D01*
X2422500Y6667500D01*
X3746500D01*
G01X2159000Y2794000D02*
Y4826000D01*
G01X3746500Y6667500D02*
Y5334000D01*
G01X4318000Y1079500D02*
Y2032000D01*
G01X4000500Y2794000D02*
Y1333500D01*
G01X4318000Y2032000D02*
Y2540000D01*
G01X5080000Y2794000D02*
X5397500D01*
Y1333500D01*
G01X6604000Y2540000D02*
X5842000D01*
Y2032000D01*
G01X6604000Y5334000D02*
X5524500D01*
Y6667500D01*
X508000Y1524000D03*
Y2540000D03*
Y5842000D03*
Y6858000D03*
G54D11*
X762000Y3556000D03*
Y3810000D03*
X508000Y3556000D03*
Y3810000D03*
X762000Y4064000D03*
Y4318000D03*
Y4572000D03*
X508000Y4064000D03*
Y4318000D03*
Y4572000D03*
X762000Y4826000D03*
X508000D03*
G54D12*
X1016000Y1778000D03*
Y2032000D03*
Y6096000D03*
Y6350000D03*
G54D13*
X2159000Y2794000D03*
Y4826000D03*
X3048000Y2095500D03*
X2794000Y2794000D03*
X2540000Y4572000D03*
X2413000Y4064000D03*
X3000000Y6300000D03*
X3429000Y2000000D03*
X3238500Y1900000D03*
Y2286000D03*
Y3175000D03*
X3750000Y4450000D03*
X3746500Y5334000D03*
Y6667500D03*
X3150000Y6159500D03*
X3400000Y6400000D03*
X4318000Y1079500D03*
X4000500Y1333500D03*
X4318000Y2032000D03*
X4000500Y2794000D03*
X4572000Y2413000D03*
X4550000Y6500000D03*
X4699000Y1649400D03*
X4889500Y4850000D03*
Y6032500D03*
X5397500Y1333500D03*
X5842000Y2032000D03*
X5905500Y4572000D03*
X5778500Y5588000D03*
X5524500Y6667500D03*
X6413500Y3175000D03*
X6921500Y5080000D03*
Y6032500D03*
X7874000Y3556000D03*
X8128000Y4572000D03*
X7874000Y5080000D03*
Y4826000D03*
X8398000Y5842000D03*
X11049000Y3064000D03*
X11112500Y4264000D03*
X11049000Y4896030D03*
X10858500Y4762500D03*
X11049000Y5461000D03*
X10798000Y5725400D03*
G54D14*
X2794000Y2540000D03*
Y2794000D03*
Y3048000D03*
Y3302000D03*
Y3556000D03*
Y3810000D03*
Y4064000D03*
Y4318000D03*
Y4572000D03*
Y4826000D03*
Y5080000D03*
Y5334000D03*
Y5588000D03*
Y5842000D03*
X4318000Y3048000D03*
Y2794000D03*
Y3810000D03*
Y3556000D03*
Y3302000D03*
Y4572000D03*
Y4318000D03*
Y4064000D03*
Y5334000D03*
Y5080000D03*
Y4826000D03*
Y5842000D03*
Y5588000D03*
X5080000Y2540000D03*
Y2794000D03*
Y3048000D03*
Y3302000D03*
Y3556000D03*
Y3810000D03*
Y4064000D03*
Y4318000D03*
Y4572000D03*
Y4826000D03*
Y5080000D03*
Y5334000D03*
Y5588000D03*
Y5842000D03*
X6604000Y3048000D03*
Y2794000D03*
Y3810000D03*
Y3556000D03*
Y3302000D03*
Y4572000D03*
Y4318000D03*
Y4064000D03*
Y5334000D03*
Y5080000D03*
Y4826000D03*
Y5842000D03*
Y5588000D03*
G54D15*
X4318000Y2540000D03*
X6604000D03*
G54D16*
X8298000Y2964000D03*
Y5164000D03*
X10498000Y2964000D03*
Y5164000D03*
G54D17*
X9398000Y4064000D03*
G54D18*
G01X2794000Y5334000D02*
X1841500D01*
Y3556000D01*
X762000D01*
G01X2794000Y5588000D02*
X1700000D01*
Y3810000D01*
X762000D01*
G01Y4064000D02*
X1498600D01*
X1524000Y4089400D01*
Y5842000D01*
X2794000D01*
G01X1016000Y6350000D02*
Y6858000D01*
X4800000D01*
Y2540000D01*
X5080000D01*
G01X2540000Y4572000D02*
Y2025400D01*
X2565400Y2000000D01*
X3429000D01*
G01X2413000Y4064000D02*
Y1900000D01*
X3238500D01*
G01X3048000Y2095500D02*
Y3048000D01*
X2794000D01*
G01Y3810000D02*
X2700000D01*
Y4950000D01*
X3000000D01*
Y6300000D01*
G01X2794000Y3302000D02*
X3374600D01*
X3400000Y3327400D01*
Y6400000D01*
G01X3150000Y6159500D02*
Y4826000D01*
X2794000D01*
G01X3238500Y2286000D02*
Y3175000D01*
G01X3750000Y4450000D02*
X3942000D01*
X4000500Y4508500D01*
Y5842000D01*
X4318000D01*
G01Y4318000D02*
X4532480Y4103520D01*
Y2452520D01*
X4572000Y2413000D01*
G01X4699000Y1649400D02*
Y4445000D01*
X4318000Y4826000D01*
G01Y5080000D02*
X4550000D01*
Y6500000D01*
G01X5080000Y3810000D02*
X5207000D01*
X5334000Y3683000D01*
X7683500D01*
X8763000Y4762500D01*
X10858500D01*
G01X5080000Y3302000D02*
X5270500D01*
X5368500Y3400000D01*
X7966510D01*
X8064510Y3302000D01*
X10706100D01*
X10795000Y3390900D01*
Y4238600D01*
X10820400Y4264000D01*
X11112500D01*
G01X5080000Y4572000D02*
X5905500D01*
G01X11049000Y4896030D02*
X8706030D01*
X8255000Y4445000D01*
X6159510D01*
X6032510Y4318000D01*
X5080000D01*
G01X11049000Y5461000D02*
X6791500D01*
Y4950000D01*
X6410500D01*
X6286500Y4826000D01*
X5080000D01*
G01X4889500Y4850000D02*
Y6032500D01*
G01X5778500Y5588000D02*
X5915900Y5725400D01*
X10798000D01*
G01X11049000Y3064000D02*
Y2857500D01*
X10795000Y2603500D01*
X6985000D01*
Y3175000D01*
X6413500D01*
G01X6604000Y3556000D02*
X7874000D01*
G01X6604000Y4572000D02*
X8128000D01*
G01X7874000Y4826000D02*
X6604000D01*
G01X7874000Y5080000D02*
X6921500D01*
G01X8398000Y5842000D02*
X7112000D01*
X6921500Y6032500D01*
G54D19*
G01X0Y0D02*
Y8000000D01*
X12000000D01*
Y0D01*
X0D01*
M02*
