G04 ================== begin FILE IDENTIFICATION RECORD ==================*
G04 Layout Name:  DOEON_PCBv4.brd*
G04 Film Name:    SILK_TOP*
G04 File Format:  Gerber RS274X*
G04 File Origin:  Cadence Allegro 17.2-P019*
G04 Origin Date:  Thu Oct 03 16:39:02 2019*
G04 *
G04 Layer:  REF DES/SILKSCREEN_TOP*
G04 Layer:  PACKAGE GEOMETRY/ASSEMBLY_TOP*
G04 Layer:  PACKAGE GEOMETRY/SILKSCREEN_TOP*
G04 Layer:  BOARD GEOMETRY/DIMENSION*
G04 Layer:  BOARD GEOMETRY/SILKSCREEN_TOP*
G04 Layer:  BOARD GEOMETRY/DESIGN_OUTLINE*
G04 *
G04 Offset:    (0.0000 0.0000)*
G04 Mirror:    No*
G04 Mode:      Positive*
G04 Rotation:  0*
G04 FullContactRelief:  No*
G04 UndefLineWidth:     0.2000*
G04 ================== end FILE IDENTIFICATION RECORD ====================*
%FSLAX35Y35*MOMM*%
%IR0*IPPOS*OFA0.00000B0.00000*MIA0B0*SFA1.00000B1.00000*%
%ADD10C,.1524*%
%ADD11C,.508*%
%ADD12C,.2*%
G75*
%LPD*%
G75*
G36*
G01X1216000Y1324000D02*
X308000D01*
Y2740000D01*
X1216000D01*
Y1324000D01*
G37*
G36*
G01Y5642000D02*
X308000D01*
Y7058000D01*
X1216000D01*
Y5642000D01*
G37*
G54D10*
G01X381000Y3416300D02*
X889000D01*
G01X381000Y4965700D02*
Y3416300D01*
G01X889000Y4965700D02*
X381000D01*
G01X889000Y3416300D02*
Y4965700D01*
G01X2813050Y2445120D02*
Y2311400D01*
G01Y2699120D02*
Y2634880D01*
G01Y2953120D02*
Y2888880D01*
G01Y2311400D02*
X4298950D01*
G01X2813050Y3207120D02*
Y3142880D01*
G01Y3461120D02*
Y3396880D01*
G01Y3715120D02*
Y3650880D01*
G01Y3969120D02*
Y3904880D01*
G01Y4223120D02*
Y4158880D01*
G01Y4477120D02*
Y4412880D01*
G01Y4731120D02*
Y4666880D01*
G01Y4985120D02*
Y4920880D01*
G01Y5239120D02*
Y5174880D01*
G01Y5493120D02*
Y5428880D01*
G01Y5747120D02*
Y5682880D01*
G01Y6070600D02*
Y5936880D01*
G01X4298950Y6070600D02*
X2813050D01*
G01X4298950Y2888880D02*
Y2953120D01*
G01Y2636770D02*
Y2699120D01*
G01Y2311400D02*
Y2443230D01*
G01Y3650880D02*
Y3715120D01*
G01Y3396880D02*
Y3461120D01*
G01Y3142880D02*
Y3207120D01*
G01Y4412880D02*
Y4477120D01*
G01Y4158880D02*
Y4223120D01*
G01Y3904880D02*
Y3969120D01*
G01Y5174880D02*
Y5239120D01*
G01Y4920880D02*
Y4985120D01*
G01Y4666880D02*
Y4731120D01*
G01Y5936880D02*
Y6070600D01*
G01Y5682880D02*
Y5747120D01*
G01Y5428880D02*
Y5493120D01*
G01X5099050Y2445120D02*
Y2311400D01*
G01Y2699120D02*
Y2634880D01*
G01Y2953120D02*
Y2888880D01*
G01Y2311400D02*
X6584950D01*
G01X5099050Y3207120D02*
Y3142880D01*
G01Y3461120D02*
Y3396880D01*
G01Y3715120D02*
Y3650880D01*
G01Y3969120D02*
Y3904880D01*
G01Y4223120D02*
Y4158880D01*
G01Y4477120D02*
Y4412880D01*
G01Y4731120D02*
Y4666880D01*
G01Y4985120D02*
Y4920880D01*
G01Y5239120D02*
Y5174880D01*
G01Y5493120D02*
Y5428880D01*
G01Y5747120D02*
Y5682880D01*
G01Y6070600D02*
Y5936880D01*
G01X6584950Y6070600D02*
X5099050D01*
G01X6584950Y2888880D02*
Y2953120D01*
G01Y2636770D02*
Y2699120D01*
G01Y2311400D02*
Y2443230D01*
G01Y3650880D02*
Y3715120D01*
G01Y3396880D02*
Y3461120D01*
G01Y3142880D02*
Y3207120D01*
G01Y4412880D02*
Y4477120D01*
G01Y4158880D02*
Y4223120D01*
G01Y3904880D02*
Y3969120D01*
G01Y5174880D02*
Y5239120D01*
G01Y4920880D02*
Y4985120D01*
G01Y4666880D02*
Y4731120D01*
G01Y5936880D02*
Y6070600D01*
G01Y5682880D02*
Y5747120D01*
G01Y5428880D02*
Y5493120D01*
G54D11*
G01X355600Y4826000D02*
G02I-38100J0D01*
G01X546100Y5029200D02*
G02I-38100J0D01*
G54D12*
G01X0Y0D02*
Y8000000D01*
X12000000D01*
Y0D01*
X0D01*
G01X1216000Y1324000D02*
X308000D01*
Y2740000D01*
X1216000D01*
Y1324000D01*
G01X190500Y1527390D02*
X254000Y1544320D01*
X190500Y1561250D01*
G01X220130Y1605620D02*
X216960Y1608330D01*
X211670Y1610360D01*
X204260Y1611720D01*
X197910Y1610360D01*
X193680Y1607650D01*
X190500Y1602910D01*
Y1584620D01*
X254000D01*
Y1606970D01*
X249770Y1611720D01*
X243420Y1614420D01*
X236010Y1615780D01*
X228600Y1614420D01*
X222250Y1610360D01*
X220130Y1605620D01*
Y1584620D01*
G01X190500Y1647950D02*
Y1664210D01*
G01Y1656080D02*
X254000D01*
G01Y1647950D02*
Y1664210D01*
G01X201080Y1699090D02*
X194730Y1703150D01*
X191560Y1707900D01*
X190500Y1713310D01*
X192620Y1720090D01*
X197910Y1724830D01*
X204260Y1726180D01*
X210610Y1725510D01*
X215900Y1722800D01*
X226480Y1709250D01*
X233890Y1703150D01*
X244480Y1699090D01*
X254000Y1697740D01*
Y1726180D01*
G01X393700Y3429000D02*
X876300D01*
G01X393700Y4953000D02*
Y3429000D01*
G01X596900Y4287940D02*
X584200Y4279900D01*
X575730Y4270250D01*
X571500Y4258990D01*
X575730Y4246120D01*
X584200Y4236470D01*
X596900Y4226810D01*
X613830Y4223600D01*
X698500D01*
G01X571500Y4126230D02*
X698500D01*
X673100Y4145530D01*
G01X571500D02*
Y4106930D01*
G01X876300Y4953000D02*
X393700D01*
G01X190500Y5845390D02*
X254000Y5862320D01*
X190500Y5879250D01*
G01X220130Y5923620D02*
X216960Y5926330D01*
X211670Y5928360D01*
X204260Y5929720D01*
X197910Y5928360D01*
X193680Y5925650D01*
X190500Y5920910D01*
Y5902620D01*
X254000D01*
Y5924970D01*
X249770Y5929720D01*
X243420Y5932420D01*
X236010Y5933780D01*
X228600Y5932420D01*
X222250Y5928360D01*
X220130Y5923620D01*
Y5902620D01*
G01X190500Y5965950D02*
Y5982210D01*
G01Y5974080D02*
X254000D01*
G01Y5965950D02*
Y5982210D01*
G01Y6029960D02*
X190500D01*
X203200Y6021830D01*
G01X254000D02*
Y6038090D01*
G01X1216000Y5642000D02*
X308000D01*
Y7058000D01*
X1216000D01*
Y5642000D01*
G01X400000Y8444500D02*
X0Y8382000D01*
X400000Y8319500D01*
Y8444500D01*
G01X4740280Y8382000D02*
X0D01*
G01X1353650Y1640420D02*
X1344000Y1646770D01*
X1332740Y1651000D01*
X1319870D01*
X1305390Y1644650D01*
X1294130Y1634070D01*
X1286090Y1621370D01*
X1279650Y1600200D01*
X1278040Y1581150D01*
X1281260Y1562100D01*
X1286090Y1549400D01*
X1295740Y1536700D01*
X1307000Y1528230D01*
X1318260Y1524000D01*
X1329520D01*
X1340780Y1528230D01*
X1350430Y1534580D01*
X1358480Y1543050D01*
G01X1447800Y1524000D02*
X1438150Y1526120D01*
X1428500Y1534580D01*
X1422060Y1549400D01*
X1418840Y1566330D01*
X1422060Y1583270D01*
X1428500Y1598080D01*
X1438150Y1606550D01*
X1447800Y1608660D01*
X1457450Y1606550D01*
X1467100Y1598080D01*
X1473540Y1583270D01*
X1475150Y1566330D01*
X1473540Y1549400D01*
X1467100Y1534580D01*
X1457450Y1526120D01*
X1447800Y1524000D01*
G01X1577340D02*
Y1651000D01*
G01X1658620Y1481670D02*
X1755140D01*
G01X1849290Y1591730D02*
X1855720Y1598080D01*
X1860550Y1608660D01*
X1863770Y1623490D01*
X1860550Y1636180D01*
X1854120Y1644650D01*
X1842850Y1651000D01*
X1799420D01*
Y1524000D01*
X1852510D01*
X1863770Y1532460D01*
X1870200Y1545170D01*
X1873420Y1559980D01*
X1870200Y1574800D01*
X1860550Y1587500D01*
X1849290Y1591730D01*
X1799420D01*
G01X1928960Y1524000D02*
Y1651000D01*
X2002960Y1524000D01*
Y1651000D01*
G01X2130890Y1640420D02*
X2121240Y1646770D01*
X2109980Y1651000D01*
X2097110D01*
X2082630Y1644650D01*
X2071370Y1634070D01*
X2063330Y1621370D01*
X2056890Y1600200D01*
X2055280Y1581150D01*
X2058500Y1562100D01*
X2063330Y1549400D01*
X2072980Y1536700D01*
X2084240Y1528230D01*
X2095500Y1524000D01*
X2106760D01*
X2118020Y1528230D01*
X2127670Y1534580D01*
X2135720Y1543050D01*
G01X876300Y3429000D02*
Y4953000D01*
G01X1286090Y6604000D02*
Y6731000D01*
X1326300D01*
X1339170Y6724650D01*
X1347220Y6716180D01*
X1350430Y6699250D01*
X1347220Y6682320D01*
X1337560Y6671730D01*
X1326300Y6665380D01*
X1286090D01*
G01X1326300D02*
X1350430Y6604000D01*
G01X1447800D02*
X1438150Y6606120D01*
X1428500Y6614580D01*
X1422060Y6629400D01*
X1418840Y6646330D01*
X1422060Y6663270D01*
X1428500Y6678080D01*
X1438150Y6686550D01*
X1447800Y6688660D01*
X1457450Y6686550D01*
X1467100Y6678080D01*
X1473540Y6663270D01*
X1475150Y6646330D01*
X1473540Y6629400D01*
X1467100Y6614580D01*
X1457450Y6606120D01*
X1447800Y6604000D01*
G01X1537120Y6688660D02*
X1556430Y6604000D01*
X1577340Y6688660D01*
X1598250Y6604000D01*
X1617560Y6688660D01*
G01X1658620Y6561670D02*
X1755140D01*
G01X1849290Y6671730D02*
X1855720Y6678080D01*
X1860550Y6688660D01*
X1863770Y6703490D01*
X1860550Y6716180D01*
X1854120Y6724650D01*
X1842850Y6731000D01*
X1799420D01*
Y6604000D01*
X1852510D01*
X1863770Y6612460D01*
X1870200Y6625170D01*
X1873420Y6639980D01*
X1870200Y6654800D01*
X1860550Y6667500D01*
X1849290Y6671730D01*
X1799420D01*
G01X1928960Y6604000D02*
Y6731000D01*
X2002960Y6604000D01*
Y6731000D01*
G01X2130890Y6720420D02*
X2121240Y6726770D01*
X2109980Y6731000D01*
X2097110D01*
X2082630Y6724650D01*
X2071370Y6714070D01*
X2063330Y6701370D01*
X2056890Y6680200D01*
X2055280Y6661150D01*
X2058500Y6642100D01*
X2063330Y6629400D01*
X2072980Y6616700D01*
X2084240Y6608230D01*
X2095500Y6604000D01*
X2106760D01*
X2118020Y6608230D01*
X2127670Y6614580D01*
X2135720Y6623050D01*
G01X2825750Y2324100D02*
X4286250D01*
G01X2825750Y6057900D02*
Y2324100D01*
G01X2755900Y2501900D02*
X2825750D01*
G01X2755900Y2578100D02*
Y2501900D01*
G01X2825750Y2578100D02*
X2755900D01*
G01X2825750Y2501900D02*
Y2578100D01*
G01X2755900Y2755900D02*
X2825750D01*
G01X2755900Y2832100D02*
Y2755900D01*
G01X2825750Y2832100D02*
X2755900D01*
G01X2825750Y2755900D02*
Y2832100D01*
G01X2755900Y3009900D02*
X2825750D01*
G01X2755900Y3086100D02*
Y3009900D01*
G01X2825750D02*
Y3086100D01*
G01D02*
X2755900D01*
G01Y3263900D02*
X2825750D01*
G01X2755900Y3340100D02*
Y3263900D01*
G01X2825750Y3340100D02*
X2755900D01*
G01X2825750Y3263900D02*
Y3340100D01*
G01X2755900Y3517900D02*
X2825750D01*
G01X2755900Y3594100D02*
Y3517900D01*
G01X2825750Y3594100D02*
X2755900D01*
G01X2825750Y3517900D02*
Y3594100D01*
G01X2755900Y3771900D02*
X2825750D01*
G01X2755900Y3848100D02*
Y3771900D01*
G01X2825750D02*
Y3848100D01*
G01D02*
X2755900D01*
G01Y4025900D02*
X2825750D01*
G01X2755900Y4102100D02*
Y4025900D01*
G01X2825750Y4102100D02*
X2755900D01*
G01X2825750Y4025900D02*
Y4102100D01*
G01X2755900Y4279900D02*
X2825750D01*
G01X2755900Y4356100D02*
Y4279900D01*
G01X2825750Y4356100D02*
X2755900D01*
G01X2825750Y4279900D02*
Y4356100D01*
G01X2755900Y4533900D02*
X2825750D01*
G01X2755900Y4610100D02*
Y4533900D01*
G01X2825750D02*
Y4610100D01*
G01D02*
X2755900D01*
G01Y4787900D02*
X2825750D01*
G01X2755900Y4864100D02*
Y4787900D01*
G01X2825750Y4864100D02*
X2755900D01*
G01X2825750Y4787900D02*
Y4864100D01*
G01X2755900Y5041900D02*
X2825750D01*
G01X2755900Y5118100D02*
Y5041900D01*
G01X2825750Y5118100D02*
X2755900D01*
G01X2825750Y5041900D02*
Y5118100D01*
G01X2755900Y5295900D02*
X2825750D01*
G01X2755900Y5372100D02*
Y5295900D01*
G01X2825750D02*
Y5372100D01*
G01X4286250Y6057900D02*
X2825750D01*
G01Y5372100D02*
X2755900D01*
G01Y5549900D02*
X2825750D01*
G01X2755900Y5626100D02*
Y5549900D01*
G01X2825750Y5626100D02*
X2755900D01*
G01X2825750Y5549900D02*
Y5626100D01*
G01X2755900Y5803900D02*
X2825750D01*
G01X2755900Y5880100D02*
Y5803900D01*
G01X2825750Y5880100D02*
X2755900D01*
G01X2825750Y5803900D02*
Y5880100D01*
G01X3586480Y2324100D02*
G03X3525520I-30480J0D01*
G01X3656160Y4127500D02*
Y4218520D01*
X3649730Y4237570D01*
X3636860Y4250270D01*
X3620770Y4254500D01*
X3604680Y4250270D01*
X3591810Y4237570D01*
X3585380Y4218520D01*
Y4127500D01*
G01X3521800Y4148670D02*
X3512140Y4135970D01*
X3500880Y4129620D01*
X3488010Y4127500D01*
X3471930Y4131730D01*
X3460660Y4142320D01*
X3457450Y4155010D01*
X3459060Y4167720D01*
X3465490Y4178300D01*
X3497660Y4199470D01*
X3512140Y4214280D01*
X3521800Y4235450D01*
X3525010Y4254500D01*
X3457450D01*
G01X3639650Y7228420D02*
X3630000Y7234770D01*
X3618740Y7239000D01*
X3605870D01*
X3591390Y7232650D01*
X3580130Y7222070D01*
X3572090Y7209370D01*
X3565650Y7188200D01*
X3564040Y7169150D01*
X3567260Y7150100D01*
X3572090Y7137400D01*
X3581740Y7124700D01*
X3593000Y7116230D01*
X3604260Y7112000D01*
X3615520D01*
X3626780Y7116230D01*
X3636430Y7122580D01*
X3644480Y7131050D01*
G01X3733800Y7112000D02*
X3724150Y7114120D01*
X3714500Y7122580D01*
X3708060Y7137400D01*
X3704840Y7154330D01*
X3708060Y7171270D01*
X3714500Y7186080D01*
X3724150Y7194550D01*
X3733800Y7196660D01*
X3743450Y7194550D01*
X3753100Y7186080D01*
X3759540Y7171270D01*
X3761150Y7154330D01*
X3759540Y7137400D01*
X3753100Y7122580D01*
X3743450Y7114120D01*
X3733800Y7112000D01*
G01X3863340D02*
Y7239000D01*
G01X4353390Y2468030D02*
X4282610Y2374900D01*
G01X4318000Y2357970D02*
Y2484970D01*
G01X4282610Y2468030D02*
X4353390Y2374900D01*
G01X4366260Y2421470D02*
X4269740D01*
G01X4296240Y2607730D02*
X4225460Y2514600D01*
G01X4260850Y2497670D02*
Y2624670D01*
G01X4225460Y2607730D02*
X4296240Y2514600D01*
G01X4309110Y2561170D02*
X4212590D01*
G01X4286250Y2324100D02*
Y6057900D01*
G01X4356100Y3009900D02*
Y3086100D01*
G01X4286250Y3009900D02*
X4356100D01*
G01X4286250Y3086100D02*
Y3009900D01*
G01X4356100Y2832100D02*
X4286250D01*
G01X4356100Y2755900D02*
Y2832100D01*
G01X4286250Y2755900D02*
X4356100D01*
G01X4286250Y2832100D02*
Y2755900D01*
G01X4356100Y2578100D02*
X4286250D01*
G01X4356100Y2501900D02*
Y2578100D01*
G01X4286250Y2501900D02*
X4356100D01*
G01X4286250Y2578100D02*
Y2501900D01*
G01X4356100Y3771900D02*
Y3848100D01*
G01X4286250Y3771900D02*
X4356100D01*
G01X4286250Y3848100D02*
Y3771900D01*
G01X4356100Y3594100D02*
X4286250D01*
G01X4356100Y3517900D02*
Y3594100D01*
G01X4286250Y3517900D02*
X4356100D01*
G01X4286250Y3594100D02*
Y3517900D01*
G01X4356100Y3340100D02*
X4286250D01*
G01X4356100Y3263900D02*
Y3340100D01*
G01X4286250Y3263900D02*
X4356100D01*
G01X4286250Y3340100D02*
Y3263900D01*
G01X4356100Y3086100D02*
X4286250D01*
G01X4356100Y4533900D02*
Y4610100D01*
G01X4286250Y4533900D02*
X4356100D01*
G01X4286250Y4610100D02*
Y4533900D01*
G01X4356100Y4356100D02*
X4286250D01*
G01X4356100Y4279900D02*
Y4356100D01*
G01X4286250Y4279900D02*
X4356100D01*
G01X4286250Y4356100D02*
Y4279900D01*
G01X4356100Y4102100D02*
X4286250D01*
G01X4356100Y4025900D02*
Y4102100D01*
G01X4286250Y4025900D02*
X4356100D01*
G01X4286250Y4102100D02*
Y4025900D01*
G01X4356100Y3848100D02*
X4286250D01*
G01X4356100Y5295900D02*
Y5372100D01*
G01X4286250Y5295900D02*
X4356100D01*
G01X4286250Y5372100D02*
Y5295900D01*
G01X4356100Y5118100D02*
X4286250D01*
G01X4356100Y5041900D02*
Y5118100D01*
G01X4286250Y5041900D02*
X4356100D01*
G01X4286250Y5118100D02*
Y5041900D01*
G01X4356100Y4864100D02*
X4286250D01*
G01X4356100Y4787900D02*
Y4864100D01*
G01X4286250Y4787900D02*
X4356100D01*
G01X4286250Y4864100D02*
Y4787900D01*
G01X4356100Y4610100D02*
X4286250D01*
G01X4356100Y5880100D02*
X4286250D01*
G01X4356100Y5803900D02*
Y5880100D01*
G01X4286250Y5803900D02*
X4356100D01*
G01X4286250Y5880100D02*
Y5803900D01*
G01X4356100Y5626100D02*
X4286250D01*
G01X4356100Y5549900D02*
Y5626100D01*
G01X4286250Y5549900D02*
X4356100D01*
G01X4286250Y5626100D02*
Y5549900D01*
G01X4356100Y5372100D02*
X4286250D01*
G01X5111750Y2324100D02*
X6572250D01*
G01X5111750Y6057900D02*
Y2324100D01*
G01X5041900Y2501900D02*
X5111750D01*
G01X5041900Y2578100D02*
Y2501900D01*
G01X5111750Y2578100D02*
X5041900D01*
G01X5111750Y2501900D02*
Y2578100D01*
G01X5041900Y2755900D02*
X5111750D01*
G01X5041900Y2832100D02*
Y2755900D01*
G01X5111750Y2832100D02*
X5041900D01*
G01X5111750Y2755900D02*
Y2832100D01*
G01X5041900Y3009900D02*
X5111750D01*
G01X5041900Y3086100D02*
Y3009900D01*
G01X5111750D02*
Y3086100D01*
G01D02*
X5041900D01*
G01Y3263900D02*
X5111750D01*
G01X5041900Y3340100D02*
Y3263900D01*
G01X5111750Y3340100D02*
X5041900D01*
G01X5111750Y3263900D02*
Y3340100D01*
G01X5041900Y3517900D02*
X5111750D01*
G01X5041900Y3594100D02*
Y3517900D01*
G01X5111750Y3594100D02*
X5041900D01*
G01X5111750Y3517900D02*
Y3594100D01*
G01X5041900Y3771900D02*
X5111750D01*
G01X5041900Y3848100D02*
Y3771900D01*
G01X5111750D02*
Y3848100D01*
G01D02*
X5041900D01*
G01Y4025900D02*
X5111750D01*
G01X5041900Y4102100D02*
Y4025900D01*
G01X5111750Y4102100D02*
X5041900D01*
G01X5111750Y4025900D02*
Y4102100D01*
G01X5041900Y4279900D02*
X5111750D01*
G01X5041900Y4356100D02*
Y4279900D01*
G01X5111750Y4356100D02*
X5041900D01*
G01X5111750Y4279900D02*
Y4356100D01*
G01X5041900Y4533900D02*
X5111750D01*
G01X5041900Y4610100D02*
Y4533900D01*
G01X5111750D02*
Y4610100D01*
G01D02*
X5041900D01*
G01Y4787900D02*
X5111750D01*
G01X5041900Y4864100D02*
Y4787900D01*
G01X5111750Y4864100D02*
X5041900D01*
G01X5111750Y4787900D02*
Y4864100D01*
G01X5041900Y5041900D02*
X5111750D01*
G01X5041900Y5118100D02*
Y5041900D01*
G01X5111750Y5118100D02*
X5041900D01*
G01X5111750Y5041900D02*
Y5118100D01*
G01X5041900Y5295900D02*
X5111750D01*
G01X5041900Y5372100D02*
Y5295900D01*
G01X5111750D02*
Y5372100D01*
G01X6572250Y6057900D02*
X5111750D01*
G01Y5372100D02*
X5041900D01*
G01Y5549900D02*
X5111750D01*
G01X5041900Y5626100D02*
Y5549900D01*
G01X5111750Y5626100D02*
X5041900D01*
G01X5111750Y5549900D02*
Y5626100D01*
G01X5041900Y5803900D02*
X5111750D01*
G01X5041900Y5880100D02*
Y5803900D01*
G01X5111750Y5880100D02*
X5041900D01*
G01X5111750Y5803900D02*
Y5880100D01*
G01X4919980Y8301990D02*
Y8462010D01*
X4896100Y8430010D01*
G01Y8301990D02*
X4943850D01*
G01X5042200Y8435340D02*
X5054130Y8451340D01*
X5068060Y8459340D01*
X5083980Y8462010D01*
X5103880Y8456680D01*
X5117800Y8443340D01*
X5121780Y8427340D01*
X5119790Y8411330D01*
X5111830Y8398000D01*
X5072040Y8371330D01*
X5054130Y8352660D01*
X5042200Y8325990D01*
X5038220Y8301990D01*
X5121780D01*
G01X5240020Y8462010D02*
X5224100Y8456680D01*
X5212170Y8443340D01*
X5204200Y8427340D01*
X5198240Y8406000D01*
X5196250Y8382000D01*
X5198240Y8357990D01*
X5204200Y8336660D01*
X5212170Y8320660D01*
X5224100Y8307320D01*
X5240020Y8301990D01*
X5255940Y8307320D01*
X5267870Y8320660D01*
X5275840Y8336660D01*
X5281800Y8357990D01*
X5283790Y8382000D01*
X5281800Y8406000D01*
X5275840Y8427340D01*
X5267870Y8443340D01*
X5255940Y8456680D01*
X5240020Y8462010D01*
G01X5872480Y2324100D02*
G03X5811520I-30480J0D01*
G01X5942160Y4127500D02*
Y4218520D01*
X5935730Y4237570D01*
X5922860Y4250270D01*
X5906770Y4254500D01*
X5890680Y4250270D01*
X5877810Y4237570D01*
X5871380Y4218520D01*
Y4127500D01*
G01X5777230Y4254500D02*
Y4127500D01*
X5796530Y4152900D01*
G01Y4254500D02*
X5757930D01*
G01X5604090Y7112000D02*
Y7239000D01*
X5644300D01*
X5657170Y7232650D01*
X5665220Y7224180D01*
X5668430Y7207250D01*
X5665220Y7190320D01*
X5655560Y7179730D01*
X5644300Y7173380D01*
X5604090D01*
G01X5644300D02*
X5668430Y7112000D01*
G01X5765800D02*
X5756150Y7114120D01*
X5746500Y7122580D01*
X5740060Y7137400D01*
X5736840Y7154330D01*
X5740060Y7171270D01*
X5746500Y7186080D01*
X5756150Y7194550D01*
X5765800Y7196660D01*
X5775450Y7194550D01*
X5785100Y7186080D01*
X5791540Y7171270D01*
X5793150Y7154330D01*
X5791540Y7137400D01*
X5785100Y7122580D01*
X5775450Y7114120D01*
X5765800Y7112000D01*
G01X5855120Y7196660D02*
X5874430Y7112000D01*
X5895340Y7196660D01*
X5916250Y7112000D01*
X5935560Y7196660D01*
G01X5419720Y8382000D02*
X12000000D01*
G01X6639390Y2468030D02*
X6568610Y2374900D01*
G01X6604000Y2357970D02*
Y2484970D01*
G01X6568610Y2468030D02*
X6639390Y2374900D01*
G01X6652260Y2421470D02*
X6555740D01*
G01X6582240Y2607730D02*
X6511460Y2514600D01*
G01X6546850Y2497670D02*
Y2624670D01*
G01X6511460Y2607730D02*
X6582240Y2514600D01*
G01X6595110Y2561170D02*
X6498590D01*
G01X6572250Y2324100D02*
Y6057900D01*
G01X6642100Y3009900D02*
Y3086100D01*
G01X6572250Y3009900D02*
X6642100D01*
G01X6572250Y3086100D02*
Y3009900D01*
G01X6642100Y2832100D02*
X6572250D01*
G01X6642100Y2755900D02*
Y2832100D01*
G01X6572250Y2755900D02*
X6642100D01*
G01X6572250Y2832100D02*
Y2755900D01*
G01X6642100Y2578100D02*
X6572250D01*
G01X6642100Y2501900D02*
Y2578100D01*
G01X6572250Y2501900D02*
X6642100D01*
G01X6572250Y2578100D02*
Y2501900D01*
G01X6642100Y3771900D02*
Y3848100D01*
G01X6572250Y3771900D02*
X6642100D01*
G01X6572250Y3848100D02*
Y3771900D01*
G01X6642100Y3594100D02*
X6572250D01*
G01X6642100Y3517900D02*
Y3594100D01*
G01X6572250Y3517900D02*
X6642100D01*
G01X6572250Y3594100D02*
Y3517900D01*
G01X6642100Y3340100D02*
X6572250D01*
G01X6642100Y3263900D02*
Y3340100D01*
G01X6572250Y3263900D02*
X6642100D01*
G01X6572250Y3340100D02*
Y3263900D01*
G01X6642100Y3086100D02*
X6572250D01*
G01X6642100Y4533900D02*
Y4610100D01*
G01X6572250Y4533900D02*
X6642100D01*
G01X6572250Y4610100D02*
Y4533900D01*
G01X6642100Y4356100D02*
X6572250D01*
G01X6642100Y4279900D02*
Y4356100D01*
G01X6572250Y4279900D02*
X6642100D01*
G01X6572250Y4356100D02*
Y4279900D01*
G01X6642100Y4102100D02*
X6572250D01*
G01X6642100Y4025900D02*
Y4102100D01*
G01X6572250Y4025900D02*
X6642100D01*
G01X6572250Y4102100D02*
Y4025900D01*
G01X6642100Y3848100D02*
X6572250D01*
G01X6642100Y5295900D02*
Y5372100D01*
G01X6572250Y5295900D02*
X6642100D01*
G01X6572250Y5372100D02*
Y5295900D01*
G01X6642100Y5118100D02*
X6572250D01*
G01X6642100Y5041900D02*
Y5118100D01*
G01X6572250Y5041900D02*
X6642100D01*
G01X6572250Y5118100D02*
Y5041900D01*
G01X6642100Y4864100D02*
X6572250D01*
G01X6642100Y4787900D02*
Y4864100D01*
G01X6572250Y4787900D02*
X6642100D01*
G01X6572250Y4864100D02*
Y4787900D01*
G01X6642100Y4610100D02*
X6572250D01*
G01X6642100Y5880100D02*
X6572250D01*
G01X6642100Y5803900D02*
Y5880100D01*
G01X6572250Y5803900D02*
X6642100D01*
G01X6572250Y5880100D02*
Y5803900D01*
G01X6642100Y5626100D02*
X6572250D01*
G01X6642100Y5549900D02*
Y5626100D01*
G01X6572250Y5549900D02*
X6642100D01*
G01X6572250Y5626100D02*
Y5549900D01*
G01X6642100Y5372100D02*
X6572250D01*
G01X7938670Y5669000D02*
X7934000Y5673000D01*
X7930000Y5674000D01*
X7924670Y5672000D01*
X7920670Y5668000D01*
X7918000Y5661000D01*
X7917330Y5654000D01*
X7918000Y5647000D01*
X7920670Y5641000D01*
X7924670Y5636000D01*
X7930000Y5634000D01*
X7934670Y5636000D01*
X7938670Y5640000D01*
G01X7978000Y5634000D02*
X7974000Y5635000D01*
X7970000Y5639000D01*
X7967330Y5646000D01*
X7966000Y5654000D01*
X7967330Y5662000D01*
X7970000Y5669000D01*
X7974000Y5673000D01*
X7978000Y5674000D01*
X7982000Y5673000D01*
X7986000Y5669000D01*
X7988670Y5662000D01*
X7989330Y5654000D01*
X7988670Y5646000D01*
X7986000Y5639000D01*
X7982000Y5635000D01*
X7978000Y5634000D01*
G01X8028000D02*
Y5694000D01*
G01X8128000Y5634000D02*
Y5694000D01*
X8120000Y5682000D01*
G01Y5634000D02*
X8136000D01*
G01X9304000Y6362000D02*
X9309330Y6357000D01*
X9315330Y6354000D01*
X9320670D01*
X9326000Y6357000D01*
X9330000Y6362000D01*
X9332000Y6369000D01*
X9330670Y6376000D01*
X9327330Y6382000D01*
X9321330Y6386000D01*
X9313330Y6388000D01*
X9308670Y6392000D01*
X9306670Y6399000D01*
X9308000Y6406000D01*
X9311330Y6411000D01*
X9316000Y6414000D01*
X9320670D01*
X9325330Y6412000D01*
X9329330Y6407000D01*
G01X9351330Y6354000D02*
X9368000Y6414000D01*
X9384670Y6354000D01*
G01X9378670Y6375000D02*
X9357330D01*
G01X9400670Y6354000D02*
Y6414000D01*
X9418000Y6364000D01*
X9435330Y6414000D01*
Y6354000D01*
G01X9454670D02*
Y6414000D01*
X9470670D01*
X9476000Y6411000D01*
X9480000Y6404000D01*
X9481330Y6396000D01*
X9480000Y6388000D01*
X9476670Y6382000D01*
X9470670Y6379000D01*
X9454670D01*
G01X9504670Y6414000D02*
Y6354000D01*
X9531330D01*
G01X9581330D02*
X9554670D01*
Y6414000D01*
X9581330D01*
G01X9570670Y6385000D02*
X9554670D01*
G01X9618000Y6354000D02*
Y6414000D01*
X9610000Y6402000D01*
G01Y6354000D02*
X9626000D01*
G01X10798670Y5434000D02*
Y5474000D01*
G01Y5466000D02*
X10802000Y5470000D01*
X10805330Y5473000D01*
X10810000Y5474000D01*
X10813330Y5473000D01*
X10817330Y5470000D01*
G01X10858000Y5434000D02*
X10854000Y5435000D01*
X10850000Y5439000D01*
X10847330Y5446000D01*
X10846000Y5454000D01*
X10847330Y5462000D01*
X10850000Y5469000D01*
X10854000Y5473000D01*
X10858000Y5474000D01*
X10862000Y5473000D01*
X10866000Y5469000D01*
X10868670Y5462000D01*
X10869330Y5454000D01*
X10868670Y5446000D01*
X10866000Y5439000D01*
X10862000Y5435000D01*
X10858000Y5434000D01*
G01X10891330Y5474000D02*
X10899330Y5434000D01*
X10908000Y5474000D01*
X10916670Y5434000D01*
X10924670Y5474000D01*
G01X11008000Y5434000D02*
Y5494000D01*
X11000000Y5482000D01*
G01Y5434000D02*
X11016000D01*
G01X12000000Y8250000D02*
Y8632000D01*
G01X11600000Y8319500D02*
X12000000Y8382000D01*
X11600000Y8444500D01*
Y8319500D01*
G01X12250000Y0D02*
X12950000D01*
G01X12700000Y3804290D02*
Y0D01*
G01X12637500Y400000D02*
X12700000Y0D01*
X12762500Y400000D01*
X12637500D01*
G01X12780010Y3983990D02*
X12777340Y3997920D01*
X12769340Y4013830D01*
X12756010Y4023780D01*
X12737340Y4027760D01*
X12718670Y4023780D01*
X12702670Y4011840D01*
X12694660Y3993940D01*
Y3974040D01*
X12689330Y3962100D01*
X12676000Y3952150D01*
X12657330Y3948170D01*
X12638660Y3954150D01*
X12625320Y3968070D01*
X12619990Y3983990D01*
X12625320Y3999910D01*
X12638660Y4013830D01*
X12657330Y4019810D01*
X12676000Y4015820D01*
X12689330Y4005880D01*
X12694660Y3993940D01*
Y3974040D01*
X12702670Y3956140D01*
X12718670Y3944200D01*
X12737340Y3940220D01*
X12756010Y3944200D01*
X12769340Y3954150D01*
X12777340Y3970060D01*
X12780010Y3983990D01*
G01X12619990Y4144010D02*
X12625320Y4128090D01*
X12638660Y4116160D01*
X12654660Y4108190D01*
X12676000Y4102230D01*
X12700000Y4100240D01*
X12724010Y4102230D01*
X12745340Y4108190D01*
X12761340Y4116160D01*
X12774680Y4128090D01*
X12780010Y4144010D01*
X12774680Y4159930D01*
X12761340Y4171860D01*
X12745340Y4179830D01*
X12724010Y4185790D01*
X12700000Y4187780D01*
X12676000Y4185790D01*
X12654660Y4179830D01*
X12638660Y4171860D01*
X12625320Y4159930D01*
X12619990Y4144010D01*
G01X12700000Y4323710D02*
Y8000000D01*
G01X12762500Y7600000D02*
X12700000Y8000000D01*
X12637500Y7600000D01*
X12762500D01*
G01X12250000Y8000000D02*
X12950000D01*
M02*
