G04 ================== begin FILE IDENTIFICATION RECORD ==================*
G04 Layout Name:  DOEON_PCBv4.brd*
G04 Film Name:    Soldermask_Top*
G04 File Format:  Gerber RS274X*
G04 File Origin:  Cadence Allegro 17.2-P019*
G04 Origin Date:  Thu Oct 03 16:39:02 2019*
G04 *
G04 Layer:  PIN/SOLDERMASK_TOP*
G04 Layer:  BOARD GEOMETRY/DESIGN_OUTLINE*
G04 *
G04 Offset:    (0.0000 0.0000)*
G04 Mirror:    No*
G04 Mode:      Positive*
G04 Rotation:  0*
G04 FullContactRelief:  No*
G04 UndefLineWidth:     0.2000*
G04 ================== end FILE IDENTIFICATION RECORD ====================*
%FSLAX35Y35*MOMM*%
%IR0*IPPOS*OFA0.00000B0.00000*MIA0B0*SFA1.00000B1.00000*%
%ADD17C,12.1001*%
%ADD12C,1.*%
%ADD10C,2.1001*%
%ADD13C,1.27*%
%ADD15R,3.1001X3.1001*%
%ADD11C,1.524*%
%ADD14R,1.27X1.27*%
%ADD16C,3.5999*%
%ADD18C,.2*%
G75*
%LPD*%
G75*
G54D10*
X508000Y1524000D03*
Y2540000D03*
Y5842000D03*
Y6858000D03*
G54D11*
X762000Y3556000D03*
Y3810000D03*
X508000Y3556000D03*
Y3810000D03*
X762000Y4064000D03*
Y4318000D03*
Y4572000D03*
X508000Y4064000D03*
Y4318000D03*
Y4572000D03*
X762000Y4826000D03*
X508000D03*
G54D12*
X1016000Y1778000D03*
Y2032000D03*
Y6096000D03*
Y6350000D03*
G54D13*
X2794000Y2540000D03*
Y2794000D03*
Y3048000D03*
Y3302000D03*
Y3556000D03*
Y3810000D03*
Y4064000D03*
Y4318000D03*
Y4572000D03*
Y4826000D03*
Y5080000D03*
Y5334000D03*
Y5588000D03*
Y5842000D03*
X4318000Y3048000D03*
Y2794000D03*
Y3810000D03*
Y3556000D03*
Y3302000D03*
Y4572000D03*
Y4318000D03*
Y4064000D03*
Y5334000D03*
Y5080000D03*
Y4826000D03*
Y5842000D03*
Y5588000D03*
X5080000Y2540000D03*
Y2794000D03*
Y3048000D03*
Y3302000D03*
Y3556000D03*
Y3810000D03*
Y4064000D03*
Y4318000D03*
Y4572000D03*
Y4826000D03*
Y5080000D03*
Y5334000D03*
Y5588000D03*
Y5842000D03*
X6604000Y3048000D03*
Y2794000D03*
Y3810000D03*
Y3556000D03*
Y3302000D03*
Y4572000D03*
Y4318000D03*
Y4064000D03*
Y5334000D03*
Y5080000D03*
Y4826000D03*
Y5842000D03*
Y5588000D03*
G54D14*
X4318000Y2540000D03*
X6604000D03*
G54D15*
X7387000Y2664000D03*
Y3064000D03*
Y3464000D03*
Y3864000D03*
Y4664000D03*
Y4264000D03*
Y5464000D03*
Y5064000D03*
X7998000Y2053000D03*
X8398000D03*
X7998000Y6075000D03*
X8398000D03*
X8798000Y2053000D03*
X9198000D03*
X8798000Y6075000D03*
X9198000D03*
X9998000Y2053000D03*
X9598000D03*
X9998000Y6075000D03*
X9598000D03*
X10798000Y2053000D03*
X10398000D03*
X10798000Y6075000D03*
X10398000D03*
X11409000Y2664000D03*
Y3064000D03*
Y3464000D03*
Y3864000D03*
Y4664000D03*
Y4264000D03*
Y5464000D03*
Y5064000D03*
G54D16*
X8298000Y2964000D03*
Y5164000D03*
X10498000Y2964000D03*
Y5164000D03*
G54D17*
X9398000Y4064000D03*
G54D18*
G01X0Y0D02*
Y8000000D01*
X12000000D01*
Y0D01*
X0D01*
M02*
